%TF.GenerationSoftware,KiCad,Pcbnew,10.0.0*%
%TF.CreationDate,2026-07-01T13:30:04-07:00*%
%TF.ProjectId,GPS-antenna_prototype,4750532d-616e-4746-956e-6e615f70726f,rev?*%
%TF.SameCoordinates,Original*%
%TF.FileFunction,Copper,L2,Bot*%
%TF.FilePolarity,Positive*%
%FSLAX46Y46*%
G04 Gerber Fmt 4.6, Leading zero omitted, Abs format (unit mm)*
G04 Created by KiCad (PCBNEW 10.0.0) date 2026-07-01 13:30:04*
%MOMM*%
%LPD*%
G01*
G04 APERTURE LIST*
%TA.AperFunction,ViaPad*%
%ADD10C,0.600000*%
%TD*%
G04 APERTURE END LIST*
D10*
%TO.N,GroundPlane*%
X90995000Y-118035800D03*
X90370000Y-114935800D03*
X90395000Y-118635800D03*
X90395000Y-118035800D03*
X90970000Y-114935800D03*
X90395000Y-117435800D03*
X90970000Y-114335800D03*
X90970000Y-113735800D03*
X90370000Y-114335800D03*
X90995000Y-117435800D03*
X90995000Y-118635800D03*
X90370000Y-113735800D03*
%TD*%
%TA.AperFunction,Conductor*%
%TO.N,GroundPlane*%
G36*
X106633025Y-67111573D02*
G01*
X106657853Y-67118863D01*
X106712371Y-67151966D01*
X114933856Y-75716013D01*
X127098473Y-88387489D01*
X127184224Y-88476812D01*
X127216451Y-88538806D01*
X127218772Y-88562686D01*
X127218772Y-121786350D01*
X131218772Y-121786350D01*
X131218772Y-92987685D01*
X131238457Y-92920646D01*
X131291261Y-92874891D01*
X131360419Y-92864947D01*
X131423975Y-92893972D01*
X131432214Y-92901802D01*
X135823342Y-97475894D01*
X137632077Y-99359993D01*
X137633870Y-99361900D01*
X137635566Y-99363743D01*
X137637326Y-99365697D01*
X150580727Y-114044902D01*
X150581738Y-114046049D01*
X150601078Y-114075576D01*
X150612872Y-114100821D01*
X150624527Y-114153290D01*
X150629437Y-158190539D01*
X150624416Y-158225482D01*
X150620013Y-158240480D01*
X150582246Y-158299256D01*
X150577468Y-158303397D01*
X150513915Y-158332428D01*
X150513792Y-158332446D01*
X145366964Y-159067707D01*
X145366127Y-159067823D01*
X145365531Y-159067904D01*
X145364843Y-159067996D01*
X131358783Y-160891702D01*
X131289763Y-160880838D01*
X131237573Y-160834384D01*
X131218772Y-160768740D01*
X131218772Y-128786350D01*
X127218772Y-128786350D01*
X127218772Y-161321866D01*
X127199087Y-161388905D01*
X127146283Y-161434660D01*
X127110783Y-161444828D01*
X106680721Y-164104994D01*
X106672733Y-164105772D01*
X106668738Y-164106031D01*
X106664742Y-164106290D01*
X106656721Y-164106550D01*
X91438868Y-164106550D01*
X91403929Y-164101526D01*
X91390611Y-164097615D01*
X91331834Y-164059839D01*
X91302812Y-163996282D01*
X91300960Y-163983398D01*
X91301224Y-163946358D01*
X91305500Y-163919366D01*
X91305500Y-163740634D01*
X91277540Y-163564103D01*
X91277539Y-163564099D01*
X91277539Y-163564098D01*
X91222310Y-163394121D01*
X91222308Y-163394118D01*
X91141166Y-163234867D01*
X91036111Y-163090272D01*
X90987127Y-163041288D01*
X90965975Y-163013032D01*
X90958483Y-162999311D01*
X90943631Y-162931051D01*
X90943760Y-162929242D01*
X90963126Y-162871047D01*
X90967319Y-162864523D01*
X90983941Y-162843897D01*
X91036111Y-162791728D01*
X91141167Y-162647132D01*
X91222309Y-162487881D01*
X91277540Y-162317897D01*
X91305500Y-162141366D01*
X91305500Y-161962634D01*
X91277540Y-161786103D01*
X91277539Y-161786099D01*
X91277539Y-161786098D01*
X91222310Y-161616121D01*
X91222308Y-161616118D01*
X91141166Y-161456867D01*
X91036111Y-161312272D01*
X90987127Y-161263288D01*
X90965975Y-161235032D01*
X90958483Y-161221311D01*
X90943631Y-161153051D01*
X90943760Y-161151242D01*
X90963126Y-161093047D01*
X90967319Y-161086523D01*
X90983941Y-161065897D01*
X91036111Y-161013728D01*
X91141167Y-160869132D01*
X91222309Y-160709881D01*
X91277540Y-160539897D01*
X91305500Y-160363366D01*
X91305500Y-160184634D01*
X91277540Y-160008103D01*
X91277539Y-160008099D01*
X91277539Y-160008098D01*
X91222310Y-159838121D01*
X91222308Y-159838118D01*
X91141166Y-159678867D01*
X91036111Y-159534272D01*
X90987127Y-159485288D01*
X90965975Y-159457032D01*
X90958483Y-159443311D01*
X90943631Y-159375051D01*
X90943760Y-159373242D01*
X90963126Y-159315047D01*
X90967319Y-159308523D01*
X90983941Y-159287897D01*
X91036111Y-159235728D01*
X91141167Y-159091132D01*
X91222309Y-158931881D01*
X91229894Y-158908536D01*
X91277412Y-158762292D01*
X91277537Y-158761912D01*
X91277539Y-158761900D01*
X91277540Y-158761897D01*
X91305500Y-158585366D01*
X91305500Y-158406634D01*
X91277540Y-158230103D01*
X91277539Y-158230099D01*
X91277539Y-158230098D01*
X91222310Y-158060121D01*
X91222308Y-158060118D01*
X91141166Y-157900867D01*
X91036111Y-157756272D01*
X90987127Y-157707288D01*
X90965975Y-157679032D01*
X90958483Y-157665311D01*
X90943631Y-157597051D01*
X90943760Y-157595242D01*
X90963126Y-157537047D01*
X90967319Y-157530523D01*
X90983941Y-157509897D01*
X91036111Y-157457728D01*
X91141167Y-157313132D01*
X91222309Y-157153881D01*
X91277540Y-156983897D01*
X91305500Y-156807366D01*
X91305500Y-156628634D01*
X91277540Y-156452103D01*
X91277539Y-156452099D01*
X91277539Y-156452098D01*
X91222310Y-156282121D01*
X91222308Y-156282118D01*
X91141166Y-156122867D01*
X91036111Y-155978272D01*
X90987127Y-155929288D01*
X90965975Y-155901032D01*
X90958483Y-155887311D01*
X90943631Y-155819051D01*
X90943760Y-155817242D01*
X90963126Y-155759047D01*
X90967319Y-155752523D01*
X90983941Y-155731897D01*
X91036111Y-155679728D01*
X91141167Y-155535132D01*
X91222309Y-155375881D01*
X91269968Y-155229201D01*
X91277539Y-155205901D01*
X91277539Y-155205900D01*
X91277540Y-155205897D01*
X91305500Y-155029366D01*
X91305500Y-154850634D01*
X91277540Y-154674103D01*
X91277539Y-154674099D01*
X91277539Y-154674098D01*
X91222310Y-154504121D01*
X91222308Y-154504118D01*
X91198290Y-154456978D01*
X91141167Y-154344868D01*
X91036111Y-154200272D01*
X90987127Y-154151288D01*
X90965975Y-154123032D01*
X90958483Y-154109311D01*
X90943631Y-154041051D01*
X90943760Y-154039242D01*
X90963126Y-153981047D01*
X90967319Y-153974523D01*
X90983941Y-153953897D01*
X91036111Y-153901728D01*
X91141167Y-153757132D01*
X91222309Y-153597881D01*
X91277540Y-153427897D01*
X91305500Y-153251366D01*
X91305500Y-153072634D01*
X91277540Y-152896103D01*
X91277539Y-152896099D01*
X91277539Y-152896098D01*
X91222310Y-152726121D01*
X91222308Y-152726118D01*
X91141166Y-152566867D01*
X91036111Y-152422272D01*
X90987127Y-152373288D01*
X90965975Y-152345032D01*
X90958483Y-152331311D01*
X90943631Y-152263051D01*
X90943760Y-152261242D01*
X90951444Y-152238152D01*
X92590500Y-152238152D01*
X92590500Y-152249998D01*
X92590500Y-152561848D01*
X92590579Y-152562650D01*
X92590579Y-152562654D01*
X92600037Y-152658680D01*
X92622225Y-152883969D01*
X92622230Y-152884003D01*
X92622233Y-152884018D01*
X92685367Y-153201426D01*
X92685370Y-153201436D01*
X92685371Y-153201441D01*
X92685372Y-153201443D01*
X92685375Y-153201454D01*
X92700516Y-153251366D01*
X92779344Y-153511232D01*
X92902936Y-153809602D01*
X92903182Y-153810208D01*
X92903224Y-153810298D01*
X93025600Y-154039245D01*
X93055798Y-154095742D01*
X93055809Y-154095760D01*
X93235636Y-154364889D01*
X93235642Y-154364898D01*
X93235653Y-154364912D01*
X93235655Y-154364915D01*
X93441001Y-154615129D01*
X93669868Y-154843996D01*
X93669943Y-154844063D01*
X93670464Y-154844485D01*
X93920102Y-155049358D01*
X94057387Y-155141089D01*
X94189247Y-155229196D01*
X94189920Y-155229569D01*
X94190720Y-155229983D01*
X94327771Y-155303238D01*
X94469410Y-155378946D01*
X94473454Y-155381107D01*
X94473558Y-155381163D01*
X94473617Y-155381194D01*
X94478188Y-155383637D01*
X94483160Y-155385280D01*
X94656980Y-155457278D01*
X94656982Y-155457279D01*
X94769722Y-155503978D01*
X94769723Y-155503979D01*
X94770810Y-155504475D01*
X94772956Y-155505330D01*
X94773708Y-155505636D01*
X94773766Y-155505653D01*
X94773772Y-155505656D01*
X94773776Y-155505657D01*
X94773778Y-155505658D01*
X95081972Y-155599147D01*
X95081989Y-155599153D01*
X95082231Y-155599226D01*
X95083536Y-155599622D01*
X95083542Y-155599623D01*
X95083545Y-155599624D01*
X95083556Y-155599627D01*
X95083612Y-155599638D01*
X95084165Y-155599768D01*
X95085390Y-155599992D01*
X95282587Y-155639216D01*
X95282624Y-155639223D01*
X95401013Y-155662772D01*
X95723152Y-155694500D01*
X95723155Y-155694500D01*
X96046845Y-155694500D01*
X96046848Y-155694500D01*
X96368987Y-155662772D01*
X96526128Y-155631514D01*
X96680598Y-155600789D01*
X96680645Y-155600783D01*
X96684290Y-155600055D01*
X96686443Y-155599627D01*
X96686454Y-155599624D01*
X96686454Y-155599623D01*
X96686462Y-155599622D01*
X96686464Y-155599622D01*
X96686465Y-155599621D01*
X96686724Y-155599570D01*
X96688168Y-155599155D01*
X96716737Y-155591364D01*
X96718462Y-155590098D01*
X96724668Y-155588032D01*
X96996222Y-155505658D01*
X97000276Y-155503979D01*
X97013332Y-155498570D01*
X97295279Y-155381784D01*
X97580754Y-155229195D01*
X97849898Y-155049358D01*
X98100119Y-154844007D01*
X98329007Y-154615119D01*
X98534358Y-154364898D01*
X98714195Y-154095754D01*
X98866784Y-153810279D01*
X98990658Y-153511222D01*
X99084622Y-153201464D01*
X99084624Y-153201454D01*
X99084627Y-153201443D01*
X99116514Y-153041128D01*
X99147772Y-152883987D01*
X99179500Y-152561848D01*
X99179500Y-152238152D01*
X99147772Y-151916013D01*
X99097401Y-151662779D01*
X99084991Y-151600386D01*
X99084761Y-151599129D01*
X99084630Y-151598572D01*
X99084627Y-151598556D01*
X99084624Y-151598545D01*
X99084623Y-151598542D01*
X99084622Y-151598536D01*
X98990658Y-151288778D01*
X98989948Y-151287066D01*
X98983799Y-151272218D01*
X98983775Y-151272163D01*
X98919960Y-151118098D01*
X98866786Y-150989726D01*
X98866784Y-150989721D01*
X98844548Y-150948121D01*
X98714983Y-150705720D01*
X98714569Y-150704920D01*
X98714195Y-150704246D01*
X98714190Y-150704239D01*
X98534358Y-150435102D01*
X98329496Y-150185476D01*
X98328998Y-150184870D01*
X98100129Y-149956001D01*
X97997648Y-149871897D01*
X97851208Y-149751717D01*
X97850210Y-149750875D01*
X97849919Y-149750657D01*
X97849909Y-149750650D01*
X97849902Y-149750645D01*
X97849898Y-149750642D01*
X97675757Y-149634284D01*
X97580768Y-149570814D01*
X97580760Y-149570809D01*
X97580754Y-149570805D01*
X97580749Y-149570802D01*
X97580742Y-149570798D01*
X97580733Y-149570793D01*
X97580726Y-149570789D01*
X97295298Y-149418225D01*
X97295290Y-149418221D01*
X97295286Y-149418219D01*
X97295281Y-149418217D01*
X97295282Y-149418217D01*
X97295208Y-149418182D01*
X97294632Y-149417948D01*
X97237219Y-149394166D01*
X96996232Y-149294344D01*
X96832372Y-149244638D01*
X96686454Y-149200375D01*
X96686443Y-149200372D01*
X96686441Y-149200371D01*
X96686436Y-149200370D01*
X96686426Y-149200367D01*
X96369018Y-149137233D01*
X96369003Y-149137230D01*
X96368969Y-149137225D01*
X96125373Y-149113234D01*
X96119464Y-149112652D01*
X96046848Y-149105500D01*
X96046845Y-149105500D01*
X95723154Y-149105500D01*
X95723152Y-149105500D01*
X95711203Y-149106676D01*
X95650527Y-149112651D01*
X95650527Y-149112652D01*
X95602111Y-149117420D01*
X95401029Y-149137225D01*
X95400995Y-149137230D01*
X95400980Y-149137233D01*
X95083572Y-149200367D01*
X95083562Y-149200370D01*
X95083550Y-149200373D01*
X95083545Y-149200375D01*
X95033819Y-149215458D01*
X94773766Y-149294344D01*
X94475396Y-149417936D01*
X94474801Y-149418178D01*
X94474700Y-149418224D01*
X94189266Y-149570793D01*
X94189247Y-149570804D01*
X94189241Y-149570807D01*
X93920105Y-149750639D01*
X93920086Y-149750653D01*
X93920083Y-149750655D01*
X93669869Y-149956001D01*
X93441001Y-150184869D01*
X93235655Y-150435083D01*
X93235653Y-150435086D01*
X93235639Y-150435105D01*
X93055807Y-150704241D01*
X93055805Y-150704244D01*
X93055800Y-150704255D01*
X93055793Y-150704266D01*
X92903224Y-150989700D01*
X92903178Y-150989801D01*
X92902936Y-150990396D01*
X92779344Y-151288766D01*
X92723347Y-151473366D01*
X92685867Y-151596925D01*
X92685370Y-151598562D01*
X92685367Y-151598572D01*
X92622233Y-151915980D01*
X92622226Y-151916019D01*
X92622224Y-151916033D01*
X92599897Y-152142740D01*
X92599896Y-152142747D01*
X92599436Y-152147427D01*
X92590500Y-152238152D01*
X90951444Y-152238152D01*
X90963126Y-152203047D01*
X90967319Y-152196523D01*
X90983937Y-152175901D01*
X91012412Y-152147427D01*
X91036111Y-152123728D01*
X91141167Y-151979132D01*
X91222309Y-151819881D01*
X91222310Y-151819878D01*
X91277539Y-151649901D01*
X91277539Y-151649900D01*
X91277540Y-151649897D01*
X91305500Y-151473366D01*
X91305500Y-151294634D01*
X91277540Y-151118103D01*
X91277539Y-151118099D01*
X91277539Y-151118098D01*
X91222310Y-150948121D01*
X91222308Y-150948118D01*
X91141166Y-150788867D01*
X91079685Y-150704246D01*
X91079685Y-150704245D01*
X91036115Y-150644278D01*
X91036111Y-150644272D01*
X90987127Y-150595288D01*
X90965975Y-150567032D01*
X90958483Y-150553311D01*
X90943631Y-150485051D01*
X90943760Y-150483242D01*
X90963126Y-150425047D01*
X90967319Y-150418523D01*
X90983941Y-150397897D01*
X91036111Y-150345728D01*
X91141167Y-150201132D01*
X91222309Y-150041881D01*
X91277540Y-149871897D01*
X91305500Y-149695366D01*
X91305500Y-149516634D01*
X91278710Y-149347489D01*
X91278709Y-149347488D01*
X91277540Y-149340103D01*
X91277539Y-149340099D01*
X91277539Y-149340098D01*
X91222310Y-149170121D01*
X91222308Y-149170118D01*
X91205551Y-149137229D01*
X91193325Y-149113234D01*
X91141168Y-149010869D01*
X91106148Y-148962669D01*
X91036111Y-148866272D01*
X90987127Y-148817288D01*
X90965975Y-148789032D01*
X90958483Y-148775311D01*
X90943631Y-148707051D01*
X90943760Y-148705242D01*
X90963126Y-148647047D01*
X90967319Y-148640523D01*
X90983941Y-148619897D01*
X91036111Y-148567728D01*
X91141167Y-148423132D01*
X91222309Y-148263881D01*
X91277540Y-148093897D01*
X91305500Y-147917366D01*
X91305500Y-147738634D01*
X91277540Y-147562103D01*
X91277539Y-147562099D01*
X91277539Y-147562098D01*
X91222310Y-147392121D01*
X91222308Y-147392118D01*
X91141166Y-147232867D01*
X91036111Y-147088272D01*
X90987127Y-147039288D01*
X90965975Y-147011032D01*
X90958483Y-146997311D01*
X90943631Y-146929051D01*
X90943760Y-146927242D01*
X90963126Y-146869047D01*
X90967319Y-146862523D01*
X90983941Y-146841897D01*
X91036111Y-146789728D01*
X91141167Y-146645132D01*
X91222309Y-146485881D01*
X91277540Y-146315897D01*
X91305500Y-146139366D01*
X91305500Y-145960634D01*
X91277540Y-145784103D01*
X91277539Y-145784099D01*
X91277539Y-145784098D01*
X91222310Y-145614121D01*
X91222308Y-145614118D01*
X91141166Y-145454867D01*
X91036111Y-145310272D01*
X90987127Y-145261288D01*
X90965975Y-145233032D01*
X90958483Y-145219311D01*
X90943631Y-145151051D01*
X90943760Y-145149242D01*
X90963126Y-145091047D01*
X90967319Y-145084523D01*
X90983941Y-145063897D01*
X91036111Y-145011728D01*
X91141167Y-144867132D01*
X91222309Y-144707881D01*
X91277540Y-144537897D01*
X91305500Y-144361366D01*
X91305500Y-144182634D01*
X91277540Y-144006103D01*
X91277539Y-144006099D01*
X91277539Y-144006098D01*
X91222310Y-143836121D01*
X91222308Y-143836118D01*
X91141166Y-143676867D01*
X91036111Y-143532272D01*
X90987127Y-143483288D01*
X90965975Y-143455032D01*
X90958483Y-143441311D01*
X90943631Y-143373051D01*
X90943760Y-143371242D01*
X90963126Y-143313047D01*
X90967319Y-143306523D01*
X90983941Y-143285897D01*
X91036111Y-143233728D01*
X91141167Y-143089132D01*
X91222309Y-142929881D01*
X91277540Y-142759897D01*
X91305500Y-142583366D01*
X91305500Y-142404634D01*
X91277540Y-142228103D01*
X91277539Y-142228099D01*
X91277539Y-142228098D01*
X91222310Y-142058121D01*
X91222308Y-142058118D01*
X91141166Y-141898867D01*
X91036111Y-141754272D01*
X90987127Y-141705288D01*
X90965975Y-141677032D01*
X90958483Y-141663311D01*
X90943631Y-141595051D01*
X90943760Y-141593242D01*
X90963126Y-141535047D01*
X90967319Y-141528523D01*
X90983941Y-141507897D01*
X91036111Y-141455728D01*
X91141167Y-141311132D01*
X91222309Y-141151881D01*
X91277540Y-140981897D01*
X91305500Y-140805366D01*
X91305500Y-140626634D01*
X91277540Y-140450103D01*
X91277539Y-140450099D01*
X91277539Y-140450098D01*
X91222310Y-140280121D01*
X91222308Y-140280118D01*
X91141166Y-140120867D01*
X91036111Y-139976272D01*
X90987127Y-139927288D01*
X90965975Y-139899032D01*
X90958483Y-139885311D01*
X90943631Y-139817051D01*
X90943760Y-139815242D01*
X90963126Y-139757047D01*
X90967319Y-139750523D01*
X90983941Y-139729897D01*
X91036111Y-139677728D01*
X91141167Y-139533132D01*
X91222309Y-139373881D01*
X91277540Y-139203897D01*
X91305500Y-139027366D01*
X91305500Y-138848634D01*
X91277540Y-138672103D01*
X91277539Y-138672099D01*
X91277539Y-138672098D01*
X91222310Y-138502121D01*
X91222308Y-138502118D01*
X91141166Y-138342867D01*
X91083362Y-138263307D01*
X91066891Y-138232091D01*
X91061639Y-138217371D01*
X91057651Y-138147615D01*
X91057652Y-138147609D01*
X91060011Y-138137467D01*
X91080470Y-138092672D01*
X91141167Y-138009132D01*
X91222309Y-137849881D01*
X91277540Y-137679897D01*
X91305500Y-137503366D01*
X91305500Y-137324634D01*
X91277540Y-137148103D01*
X91277539Y-137148099D01*
X91277539Y-137148098D01*
X91222310Y-136978121D01*
X91222308Y-136978118D01*
X91141166Y-136818867D01*
X91083362Y-136739307D01*
X91066891Y-136708091D01*
X91061639Y-136693371D01*
X91057651Y-136623615D01*
X91057652Y-136623609D01*
X91060011Y-136613467D01*
X91080470Y-136568672D01*
X91141167Y-136485132D01*
X91222309Y-136325881D01*
X91277540Y-136155897D01*
X91305500Y-135979366D01*
X91305500Y-135800634D01*
X91284038Y-135665127D01*
X91278710Y-135631489D01*
X91278709Y-135631488D01*
X91277540Y-135624103D01*
X91277539Y-135624099D01*
X91277539Y-135624098D01*
X91222310Y-135454121D01*
X91222308Y-135454118D01*
X91141166Y-135294867D01*
X91083362Y-135215307D01*
X91066891Y-135184091D01*
X91061639Y-135169371D01*
X91057651Y-135099615D01*
X91057652Y-135099609D01*
X91060011Y-135089467D01*
X91080470Y-135044672D01*
X91141167Y-134961132D01*
X91222309Y-134801881D01*
X91250313Y-134715694D01*
X91277539Y-134631901D01*
X91277539Y-134631900D01*
X91277540Y-134631897D01*
X91305500Y-134455366D01*
X91305500Y-134276634D01*
X91277540Y-134100103D01*
X91277539Y-134100099D01*
X91277539Y-134100098D01*
X91222310Y-133930121D01*
X91222308Y-133930118D01*
X91200583Y-133887479D01*
X91141167Y-133770868D01*
X91128590Y-133753558D01*
X91083362Y-133691307D01*
X91066891Y-133660091D01*
X91061639Y-133645371D01*
X91057651Y-133575615D01*
X91057652Y-133575609D01*
X91060011Y-133565467D01*
X91080470Y-133520672D01*
X91106317Y-133485098D01*
X91141167Y-133437132D01*
X91222309Y-133277881D01*
X91242772Y-133214900D01*
X93479500Y-133214900D01*
X93479500Y-133485098D01*
X93509746Y-133753545D01*
X93509751Y-133753572D01*
X93569872Y-134016982D01*
X93569875Y-134016990D01*
X93659107Y-134271999D01*
X93776330Y-134515414D01*
X93776534Y-134515772D01*
X93777220Y-134516831D01*
X93920077Y-134744187D01*
X94088532Y-134955422D01*
X94279578Y-135146468D01*
X94490813Y-135314923D01*
X94719581Y-135458667D01*
X94963005Y-135575894D01*
X95218020Y-135665127D01*
X95218022Y-135665127D01*
X95218023Y-135665128D01*
X95218029Y-135665129D01*
X95218680Y-135665357D01*
X95221386Y-135665895D01*
X95481429Y-135725249D01*
X95481437Y-135725249D01*
X95481442Y-135725251D01*
X95599581Y-135738561D01*
X95732510Y-135753539D01*
X95740111Y-135755500D01*
X96020094Y-135755500D01*
X96045592Y-135755500D01*
X96050726Y-135752696D01*
X96063196Y-135750642D01*
X96209574Y-135734149D01*
X96288557Y-135725251D01*
X96288560Y-135725250D01*
X96288571Y-135725249D01*
X96551977Y-135665128D01*
X96806995Y-135575894D01*
X97050419Y-135458667D01*
X97279187Y-135314923D01*
X97490422Y-135146468D01*
X97681468Y-134955422D01*
X97849923Y-134744187D01*
X97993667Y-134515419D01*
X98110894Y-134271995D01*
X98200128Y-134016977D01*
X98260249Y-133753571D01*
X98290500Y-133485090D01*
X98290500Y-133214910D01*
X98260249Y-132946429D01*
X98200128Y-132683023D01*
X98110894Y-132428005D01*
X97993667Y-132184581D01*
X97849923Y-131955813D01*
X97681468Y-131744578D01*
X97490422Y-131553532D01*
X97490419Y-131553530D01*
X97354207Y-131444904D01*
X97279187Y-131385077D01*
X97121190Y-131285801D01*
X97050416Y-131241331D01*
X97050413Y-131241329D01*
X96806999Y-131124107D01*
X96645316Y-131067532D01*
X96622091Y-131050874D01*
X96354422Y-130989781D01*
X96304071Y-130978288D01*
X96289829Y-130975038D01*
X96288789Y-130974789D01*
X96288576Y-130974751D01*
X96288558Y-130974749D01*
X96288558Y-130974747D01*
X96288477Y-130974733D01*
X96288367Y-130974727D01*
X96020098Y-130944500D01*
X96020094Y-130944500D01*
X96020090Y-130944500D01*
X95749910Y-130944500D01*
X95749906Y-130944500D01*
X95749901Y-130944500D01*
X95481453Y-130974746D01*
X95481426Y-130974751D01*
X95218016Y-131034872D01*
X95218008Y-131034875D01*
X94962999Y-131124107D01*
X94719585Y-131241329D01*
X94490815Y-131385075D01*
X94279578Y-131553530D01*
X94088530Y-131744578D01*
X93920075Y-131955815D01*
X93776329Y-132184585D01*
X93659107Y-132427999D01*
X93569875Y-132683008D01*
X93569872Y-132683016D01*
X93509751Y-132946426D01*
X93509746Y-132946453D01*
X93479500Y-133214900D01*
X91242772Y-133214900D01*
X91243846Y-133211595D01*
X91256351Y-133173112D01*
X91256351Y-133173111D01*
X91277539Y-133107901D01*
X91277539Y-133107900D01*
X91277540Y-133107897D01*
X91305500Y-132931366D01*
X91305500Y-132752634D01*
X91294474Y-132683020D01*
X91278710Y-132583489D01*
X91278709Y-132583488D01*
X91277540Y-132576103D01*
X91277539Y-132576099D01*
X91277539Y-132576098D01*
X91222310Y-132406121D01*
X91222308Y-132406118D01*
X91159073Y-132282010D01*
X91141167Y-132246868D01*
X91036111Y-132102272D01*
X91028096Y-132094257D01*
X91006947Y-132066007D01*
X91000292Y-132053819D01*
X90985441Y-131985549D01*
X91009855Y-131920088D01*
X91011434Y-131917978D01*
X91067369Y-131876113D01*
X91074327Y-131873969D01*
X91084811Y-131861617D01*
X91090902Y-131857861D01*
X91109747Y-131846981D01*
X91112229Y-131845646D01*
X91112848Y-131845008D01*
X91128293Y-131829548D01*
X91145569Y-131820104D01*
X91151743Y-131810346D01*
X91168854Y-131788958D01*
X91197090Y-131760724D01*
X91199059Y-131758798D01*
X91204710Y-131753393D01*
X91205174Y-131753152D01*
X91206200Y-131751447D01*
X91206551Y-131751123D01*
X91207891Y-131748865D01*
X91209847Y-131744836D01*
X91238233Y-131695619D01*
X91238235Y-131695620D01*
X91238250Y-131695588D01*
X91238260Y-131695572D01*
X91247308Y-131679896D01*
X91247312Y-131679893D01*
X91247311Y-131679893D01*
X91271392Y-131638186D01*
X91271394Y-131638177D01*
X91271474Y-131637982D01*
X91271480Y-131637973D01*
X91288459Y-131574487D01*
X91288459Y-131574486D01*
X91288472Y-131574489D01*
X91288473Y-131574431D01*
X91304730Y-131513763D01*
X91305457Y-131511341D01*
X91305530Y-131510846D01*
X91305500Y-131444907D01*
X91305500Y-131444904D01*
X91305500Y-131379108D01*
X91305500Y-131371111D01*
X91305465Y-131370593D01*
X91305284Y-130974751D01*
X91300500Y-120485039D01*
X91300500Y-120419508D01*
X91300500Y-120419472D01*
X91300477Y-120419307D01*
X91283341Y-120355471D01*
X91283326Y-120355415D01*
X91283261Y-120355174D01*
X91266392Y-120292214D01*
X91266390Y-120292211D01*
X91266343Y-120292097D01*
X91266306Y-120292009D01*
X91266304Y-120292001D01*
X91266262Y-120291929D01*
X91265944Y-120291225D01*
X91264673Y-120289179D01*
X91233060Y-120234483D01*
X91233031Y-120234432D01*
X91224853Y-120220267D01*
X91224852Y-120220264D01*
X91200503Y-120178089D01*
X91200358Y-120177900D01*
X91184182Y-120161739D01*
X92844500Y-120161739D01*
X92844500Y-120503259D01*
X92882734Y-120842602D01*
X92958726Y-121175543D01*
X92958730Y-121175559D01*
X92958737Y-121175580D01*
X93071510Y-121497863D01*
X93071516Y-121497878D01*
X93071523Y-121497896D01*
X93219685Y-121805557D01*
X93219888Y-121805914D01*
X93220577Y-121806977D01*
X93401380Y-122094722D01*
X93614303Y-122361719D01*
X93855781Y-122603197D01*
X94122778Y-122816120D01*
X94411935Y-122997810D01*
X94411940Y-122997813D01*
X94411946Y-122997815D01*
X94411948Y-122997817D01*
X94715687Y-123144090D01*
X94719662Y-123146004D01*
X94720490Y-123146287D01*
X94807042Y-123176573D01*
X95041918Y-123258761D01*
X95041939Y-123258768D01*
X95041943Y-123258769D01*
X95041955Y-123258773D01*
X95374895Y-123334764D01*
X95374903Y-123334764D01*
X95374908Y-123334766D01*
X95538257Y-123353170D01*
X95696848Y-123371038D01*
X95704451Y-123373000D01*
X96055754Y-123373000D01*
X96081252Y-123373000D01*
X96086386Y-123370196D01*
X96098855Y-123368142D01*
X96297024Y-123345814D01*
X96395091Y-123334766D01*
X96395097Y-123334764D01*
X96395105Y-123334764D01*
X96728045Y-123258773D01*
X97050382Y-123145982D01*
X97358051Y-122997817D01*
X97358059Y-122997813D01*
X97358059Y-122997812D01*
X97358065Y-122997810D01*
X97647222Y-122816120D01*
X97914219Y-122603197D01*
X98155697Y-122361719D01*
X98368620Y-122094722D01*
X98550310Y-121805565D01*
X98550314Y-121805557D01*
X98698475Y-121497897D01*
X98698476Y-121497893D01*
X98698482Y-121497882D01*
X98811273Y-121175545D01*
X98887264Y-120842605D01*
X98925500Y-120503251D01*
X98925500Y-120161749D01*
X98887264Y-119822395D01*
X98811273Y-119489455D01*
X98811267Y-119489439D01*
X98698761Y-119167915D01*
X98698761Y-119167916D01*
X98698482Y-119167118D01*
X98698480Y-119167114D01*
X98698434Y-119166983D01*
X98697923Y-119165891D01*
X98697344Y-119164623D01*
X98696596Y-119163199D01*
X98550316Y-118859445D01*
X98410367Y-118636718D01*
X98368621Y-118570280D01*
X98368620Y-118570278D01*
X98155697Y-118303281D01*
X97914219Y-118061803D01*
X97914216Y-118061801D01*
X97846411Y-118007728D01*
X97647222Y-117848880D01*
X97585798Y-117810285D01*
X97435374Y-117715766D01*
X97427505Y-117706870D01*
X97358065Y-117667190D01*
X97358066Y-117667190D01*
X97358059Y-117667186D01*
X97358050Y-117667182D01*
X97358030Y-117667171D01*
X97050402Y-117519026D01*
X97050378Y-117519016D01*
X97050363Y-117519010D01*
X96728080Y-117406237D01*
X96728059Y-117406230D01*
X96728047Y-117406227D01*
X96728044Y-117406226D01*
X96639556Y-117386029D01*
X96395102Y-117330234D01*
X96055759Y-117292000D01*
X96055755Y-117292000D01*
X96055751Y-117292000D01*
X95714249Y-117292000D01*
X95714244Y-117292000D01*
X95714239Y-117292000D01*
X95374896Y-117330234D01*
X95041955Y-117406226D01*
X95041939Y-117406230D01*
X95041918Y-117406237D01*
X94719635Y-117519010D01*
X94719620Y-117519016D01*
X94719596Y-117519026D01*
X94411945Y-117667182D01*
X94122780Y-117848878D01*
X93855781Y-118061801D01*
X93614301Y-118303281D01*
X93401378Y-118570280D01*
X93219682Y-118859445D01*
X93071526Y-119167096D01*
X93071516Y-119167120D01*
X93071510Y-119167135D01*
X92958737Y-119489418D01*
X92958730Y-119489439D01*
X92958726Y-119489455D01*
X92882734Y-119822396D01*
X92844500Y-120161739D01*
X91184182Y-120161739D01*
X91153745Y-120131330D01*
X91153743Y-120131329D01*
X91152874Y-120130460D01*
X91107314Y-120084900D01*
X91107221Y-120084846D01*
X91107149Y-120084774D01*
X91107128Y-120084757D01*
X91104734Y-120083376D01*
X91050074Y-120051851D01*
X91049971Y-120051792D01*
X90993186Y-120019008D01*
X90993184Y-120019007D01*
X90993182Y-120019006D01*
X90992979Y-120018921D01*
X90992978Y-120018920D01*
X90992974Y-120018919D01*
X90931117Y-120002375D01*
X90931113Y-120002374D01*
X90929098Y-120001835D01*
X90929097Y-120001834D01*
X90929049Y-120001822D01*
X90865792Y-119984873D01*
X90865762Y-119984869D01*
X90865660Y-119984869D01*
X90799802Y-119984899D01*
X90799799Y-119984899D01*
X90797764Y-119984900D01*
X83187330Y-119984900D01*
X83152389Y-119979875D01*
X83137390Y-119975470D01*
X83078644Y-119937727D01*
X83077457Y-119936358D01*
X83049977Y-119881483D01*
X83048332Y-119873921D01*
X83045500Y-119847568D01*
X83045500Y-118587729D01*
X83050523Y-118552793D01*
X83054927Y-118537795D01*
X83092672Y-118479044D01*
X83094041Y-118477857D01*
X83148920Y-118450377D01*
X83156479Y-118448733D01*
X83182832Y-118445900D01*
X87110890Y-118445900D01*
X87110892Y-118445900D01*
X87238186Y-118411792D01*
X87352314Y-118345900D01*
X87445500Y-118252714D01*
X87511392Y-118138586D01*
X87545500Y-118011292D01*
X87545500Y-114379508D01*
X87511392Y-114252214D01*
X87445500Y-114138086D01*
X87352314Y-114044900D01*
X87295250Y-114011954D01*
X87238187Y-113979008D01*
X87174539Y-113961954D01*
X87110892Y-113944900D01*
X87110891Y-113944900D01*
X83187330Y-113944900D01*
X83152389Y-113939875D01*
X83137390Y-113935470D01*
X83078644Y-113897727D01*
X83077457Y-113896358D01*
X83049977Y-113841483D01*
X83048332Y-113833921D01*
X83045500Y-113807568D01*
X83045500Y-112547729D01*
X83050523Y-112512793D01*
X83054927Y-112497795D01*
X83092672Y-112439044D01*
X83094041Y-112437857D01*
X83148920Y-112410377D01*
X83156479Y-112408733D01*
X83182832Y-112405900D01*
X90799830Y-112405900D01*
X90865722Y-112405922D01*
X90865804Y-112405900D01*
X90865892Y-112405900D01*
X90930595Y-112388562D01*
X90990568Y-112372515D01*
X90992806Y-112371968D01*
X90993022Y-112371858D01*
X90993028Y-112371857D01*
X90993032Y-112371853D01*
X90993033Y-112371852D01*
X90993051Y-112371849D01*
X90993169Y-112371799D01*
X90993177Y-112371794D01*
X90993186Y-112371792D01*
X90993409Y-112371662D01*
X90996458Y-112370122D01*
X90996458Y-112370121D01*
X90996464Y-112370119D01*
X90997945Y-112369370D01*
X91001027Y-112367264D01*
X91042888Y-112343095D01*
X91050887Y-112338478D01*
X91050920Y-112338459D01*
X91072171Y-112326199D01*
X91099783Y-112310270D01*
X91103202Y-112308610D01*
X91103698Y-112308284D01*
X91109286Y-112304852D01*
X91113661Y-112301008D01*
X91116511Y-112298811D01*
X91121823Y-112291390D01*
X91153787Y-112259427D01*
X91200396Y-112212850D01*
X91200397Y-112212847D01*
X91200453Y-112212792D01*
X91200496Y-112212716D01*
X91200500Y-112212714D01*
X91210720Y-112195011D01*
X91219535Y-112186606D01*
X91230963Y-112161211D01*
X91236675Y-112150060D01*
X91266326Y-112098744D01*
X91266326Y-112098740D01*
X91266370Y-112098665D01*
X91266390Y-112098587D01*
X91266392Y-112098586D01*
X91277580Y-112056829D01*
X91283433Y-112034990D01*
X91283443Y-112034951D01*
X91287701Y-112019078D01*
X91287702Y-112019078D01*
X91287702Y-112019072D01*
X91300478Y-111971462D01*
X91300478Y-111971459D01*
X91300500Y-111971294D01*
X91300500Y-111906551D01*
X91305360Y-97565127D01*
X91305477Y-97220976D01*
X91305500Y-97220892D01*
X91305500Y-97154188D01*
X91305515Y-97109719D01*
X91307017Y-97100632D01*
X91306586Y-97097360D01*
X91306048Y-97089147D01*
X91303490Y-97081608D01*
X91298922Y-97064559D01*
X91299132Y-97055739D01*
X91289692Y-97028768D01*
X91286949Y-97019873D01*
X91271457Y-96961972D01*
X91271455Y-96961968D01*
X91271453Y-96961961D01*
X91271448Y-96961950D01*
X91271417Y-96961865D01*
X91271396Y-96961824D01*
X91271392Y-96961814D01*
X91238444Y-96904747D01*
X91238116Y-96904178D01*
X91238087Y-96904059D01*
X91238057Y-96904077D01*
X91205690Y-96847971D01*
X91205689Y-96847970D01*
X91205604Y-96847822D01*
X91205543Y-96847761D01*
X91205500Y-96847686D01*
X91203097Y-96845283D01*
X91203096Y-96845281D01*
X91159028Y-96801214D01*
X91158997Y-96801183D01*
X91112452Y-96754606D01*
X91112451Y-96754605D01*
X91112450Y-96754604D01*
X91112447Y-96754602D01*
X91112313Y-96754499D01*
X91110543Y-96753477D01*
X91110542Y-96753476D01*
X91056608Y-96722338D01*
X91028833Y-96700488D01*
X91019259Y-96690440D01*
X90987265Y-96628326D01*
X90993923Y-96558794D01*
X90997091Y-96550888D01*
X91024521Y-96509317D01*
X91036111Y-96497728D01*
X91141167Y-96353132D01*
X91222309Y-96193881D01*
X91277540Y-96023897D01*
X91305500Y-95847366D01*
X91305500Y-95668634D01*
X91277540Y-95492103D01*
X91277539Y-95492099D01*
X91277539Y-95492098D01*
X91222310Y-95322121D01*
X91222308Y-95322118D01*
X91189713Y-95258146D01*
X91147273Y-95174851D01*
X91147270Y-95174847D01*
X91143642Y-95167726D01*
X91143641Y-95167724D01*
X91141168Y-95162869D01*
X91106316Y-95114900D01*
X93479500Y-95114900D01*
X93479500Y-95385098D01*
X93509746Y-95653545D01*
X93509751Y-95653572D01*
X93569872Y-95916982D01*
X93569875Y-95916990D01*
X93659107Y-96171999D01*
X93776330Y-96415414D01*
X93776534Y-96415772D01*
X93777220Y-96416831D01*
X93920077Y-96644187D01*
X93956963Y-96690440D01*
X93982220Y-96722111D01*
X94082421Y-96847760D01*
X94088527Y-96855417D01*
X94088531Y-96855421D01*
X94088532Y-96855422D01*
X94279578Y-97046468D01*
X94490813Y-97214923D01*
X94719581Y-97358667D01*
X94963005Y-97475894D01*
X95218020Y-97565127D01*
X95218022Y-97565127D01*
X95218023Y-97565128D01*
X95218029Y-97565129D01*
X95218680Y-97565357D01*
X95221386Y-97565895D01*
X95481429Y-97625249D01*
X95481437Y-97625249D01*
X95481442Y-97625251D01*
X95599581Y-97638561D01*
X95732510Y-97653539D01*
X95740111Y-97655500D01*
X96020094Y-97655500D01*
X96045592Y-97655500D01*
X96050726Y-97652696D01*
X96063196Y-97650642D01*
X96209574Y-97634149D01*
X96288557Y-97625251D01*
X96288560Y-97625250D01*
X96288571Y-97625249D01*
X96551977Y-97565128D01*
X96806995Y-97475894D01*
X97050419Y-97358667D01*
X97279187Y-97214923D01*
X97490422Y-97046468D01*
X97681468Y-96855422D01*
X97849923Y-96644187D01*
X97993667Y-96415419D01*
X98110894Y-96171995D01*
X98200128Y-95916977D01*
X98260249Y-95653571D01*
X98290500Y-95385090D01*
X98290500Y-95114910D01*
X98260249Y-94846429D01*
X98200128Y-94583023D01*
X98110894Y-94328005D01*
X97993667Y-94084581D01*
X97849923Y-93855813D01*
X97681468Y-93644578D01*
X97490422Y-93453532D01*
X97490419Y-93453530D01*
X97404320Y-93384868D01*
X97279187Y-93285077D01*
X97051831Y-93142220D01*
X97050772Y-93141534D01*
X97050414Y-93141330D01*
X96806999Y-93024107D01*
X96645316Y-92967532D01*
X96622091Y-92950874D01*
X96354422Y-92889781D01*
X96304071Y-92878288D01*
X96289829Y-92875038D01*
X96288789Y-92874789D01*
X96288576Y-92874751D01*
X96288558Y-92874749D01*
X96288558Y-92874747D01*
X96288477Y-92874733D01*
X96288367Y-92874727D01*
X96020098Y-92844500D01*
X96020094Y-92844500D01*
X96020090Y-92844500D01*
X95749910Y-92844500D01*
X95749906Y-92844500D01*
X95749901Y-92844500D01*
X95481453Y-92874746D01*
X95481426Y-92874751D01*
X95218016Y-92934872D01*
X95218008Y-92934875D01*
X94962999Y-93024107D01*
X94719585Y-93141329D01*
X94490815Y-93285075D01*
X94279578Y-93453530D01*
X94088530Y-93644578D01*
X93920075Y-93855815D01*
X93776329Y-94084585D01*
X93659107Y-94327999D01*
X93569875Y-94583008D01*
X93569872Y-94583016D01*
X93509751Y-94846426D01*
X93509746Y-94846453D01*
X93479500Y-95114900D01*
X91106316Y-95114900D01*
X91106148Y-95114669D01*
X91036111Y-95018272D01*
X90987127Y-94969288D01*
X90965975Y-94941032D01*
X90958483Y-94927311D01*
X90943631Y-94859051D01*
X90943760Y-94857242D01*
X90963126Y-94799047D01*
X90967319Y-94792523D01*
X90983941Y-94771897D01*
X91036111Y-94719728D01*
X91141167Y-94575132D01*
X91222309Y-94415881D01*
X91277540Y-94245897D01*
X91305500Y-94069366D01*
X91305500Y-93890634D01*
X91277540Y-93714103D01*
X91277539Y-93714099D01*
X91277539Y-93714098D01*
X91222310Y-93544121D01*
X91222308Y-93544118D01*
X91176153Y-93453532D01*
X91141167Y-93384868D01*
X91036111Y-93240272D01*
X90987127Y-93191288D01*
X90965975Y-93163032D01*
X90958483Y-93149311D01*
X90943631Y-93081051D01*
X90943760Y-93079242D01*
X90963126Y-93021047D01*
X90967319Y-93014523D01*
X90983941Y-92993897D01*
X91036111Y-92941728D01*
X91141167Y-92797132D01*
X91222309Y-92637881D01*
X91277540Y-92467897D01*
X91305500Y-92291366D01*
X91305500Y-92112634D01*
X91277540Y-91936103D01*
X91277539Y-91936099D01*
X91277539Y-91936098D01*
X91222310Y-91766121D01*
X91222308Y-91766118D01*
X91141166Y-91606867D01*
X91036111Y-91462272D01*
X90987127Y-91413288D01*
X90965975Y-91385032D01*
X90958483Y-91371311D01*
X90943631Y-91303051D01*
X90943760Y-91301242D01*
X90963126Y-91243047D01*
X90967319Y-91236523D01*
X90983941Y-91215897D01*
X91036111Y-91163728D01*
X91141167Y-91019132D01*
X91222309Y-90859881D01*
X91277540Y-90689897D01*
X91305500Y-90513366D01*
X91305500Y-90334634D01*
X91277540Y-90158103D01*
X91277539Y-90158099D01*
X91277539Y-90158098D01*
X91222310Y-89988121D01*
X91222308Y-89988118D01*
X91141166Y-89828867D01*
X91036111Y-89684272D01*
X90987127Y-89635288D01*
X90965975Y-89607032D01*
X90958483Y-89593311D01*
X90943631Y-89525051D01*
X90943760Y-89523242D01*
X90963126Y-89465047D01*
X90967319Y-89458523D01*
X90983941Y-89437897D01*
X91036111Y-89385728D01*
X91141167Y-89241132D01*
X91222309Y-89081881D01*
X91277540Y-88911897D01*
X91305500Y-88735366D01*
X91305500Y-88556634D01*
X91277540Y-88380103D01*
X91277539Y-88380099D01*
X91277539Y-88380098D01*
X91222310Y-88210121D01*
X91222308Y-88210118D01*
X91141166Y-88050867D01*
X91036111Y-87906272D01*
X90987127Y-87857288D01*
X90965975Y-87829032D01*
X90958483Y-87815311D01*
X90943631Y-87747051D01*
X90943760Y-87745242D01*
X90963126Y-87687047D01*
X90967319Y-87680523D01*
X90983941Y-87659897D01*
X91036111Y-87607728D01*
X91141167Y-87463132D01*
X91222309Y-87303881D01*
X91277540Y-87133897D01*
X91305500Y-86957366D01*
X91305500Y-86778634D01*
X91277540Y-86602103D01*
X91277539Y-86602099D01*
X91277539Y-86602098D01*
X91222310Y-86432121D01*
X91222308Y-86432118D01*
X91141166Y-86272867D01*
X91036111Y-86128272D01*
X90987127Y-86079288D01*
X90965975Y-86051032D01*
X90958483Y-86037311D01*
X90943631Y-85969051D01*
X90943760Y-85967242D01*
X90963126Y-85909047D01*
X90967319Y-85902523D01*
X90983941Y-85881897D01*
X91036111Y-85829728D01*
X91141167Y-85685132D01*
X91222309Y-85525881D01*
X91277540Y-85355897D01*
X91305500Y-85179366D01*
X91305500Y-85000634D01*
X91277540Y-84824103D01*
X91277539Y-84824099D01*
X91277539Y-84824098D01*
X91222310Y-84654121D01*
X91222308Y-84654118D01*
X91141166Y-84494867D01*
X91036111Y-84350272D01*
X90987127Y-84301288D01*
X90965975Y-84273032D01*
X90958483Y-84259311D01*
X90943631Y-84191051D01*
X90943760Y-84189242D01*
X90963126Y-84131047D01*
X90967319Y-84124523D01*
X90983941Y-84103897D01*
X91036111Y-84051728D01*
X91141167Y-83907132D01*
X91222309Y-83747881D01*
X91277540Y-83577897D01*
X91305500Y-83401366D01*
X91305500Y-83222634D01*
X91277540Y-83046103D01*
X91277539Y-83046099D01*
X91277539Y-83046098D01*
X91222310Y-82876121D01*
X91222308Y-82876118D01*
X91141166Y-82716867D01*
X91036111Y-82572272D01*
X90987127Y-82523288D01*
X90965975Y-82495032D01*
X90958483Y-82481311D01*
X90943631Y-82413051D01*
X90943760Y-82411242D01*
X90963126Y-82353047D01*
X90967319Y-82346523D01*
X90983941Y-82325897D01*
X91036111Y-82273728D01*
X91141167Y-82129132D01*
X91222309Y-81969881D01*
X91277540Y-81799897D01*
X91305500Y-81623366D01*
X91305500Y-81444634D01*
X91277540Y-81268103D01*
X91277539Y-81268099D01*
X91277539Y-81268098D01*
X91222310Y-81098121D01*
X91222308Y-81098118D01*
X91141166Y-80938867D01*
X91036111Y-80794272D01*
X90987127Y-80745288D01*
X90965975Y-80717032D01*
X90958483Y-80703311D01*
X90943631Y-80635051D01*
X90943760Y-80633242D01*
X90963126Y-80575047D01*
X90967319Y-80568523D01*
X90983941Y-80547897D01*
X91036111Y-80495728D01*
X91141167Y-80351132D01*
X91222309Y-80191881D01*
X91277540Y-80021897D01*
X91305500Y-79845366D01*
X91305500Y-79666634D01*
X91277540Y-79490103D01*
X91277539Y-79490099D01*
X91277539Y-79490098D01*
X91222310Y-79320121D01*
X91222308Y-79320118D01*
X91214941Y-79305658D01*
X91141167Y-79160868D01*
X91036111Y-79016272D01*
X90987127Y-78967288D01*
X90965975Y-78939032D01*
X90958483Y-78925311D01*
X90943631Y-78857051D01*
X90943760Y-78855242D01*
X90963126Y-78797047D01*
X90967319Y-78790523D01*
X90983941Y-78769897D01*
X91036111Y-78717728D01*
X91141167Y-78573132D01*
X91222309Y-78413881D01*
X91277540Y-78243897D01*
X91305500Y-78067366D01*
X91305500Y-77888634D01*
X91277540Y-77712103D01*
X91277539Y-77712099D01*
X91277539Y-77712098D01*
X91222310Y-77542121D01*
X91222308Y-77542118D01*
X91187703Y-77474200D01*
X91141167Y-77382868D01*
X91036111Y-77238272D01*
X90987127Y-77189288D01*
X90965975Y-77161032D01*
X90958483Y-77147311D01*
X90943631Y-77079051D01*
X90943760Y-77077242D01*
X90963126Y-77019047D01*
X90967319Y-77012523D01*
X90983941Y-76991897D01*
X91036111Y-76939728D01*
X91141167Y-76795132D01*
X91222309Y-76635881D01*
X91277540Y-76465897D01*
X91305500Y-76289366D01*
X91305500Y-76110634D01*
X91294020Y-76038155D01*
X92590500Y-76038155D01*
X92590500Y-76361844D01*
X92609954Y-76559378D01*
X92622225Y-76683969D01*
X92622230Y-76684003D01*
X92622233Y-76684018D01*
X92685367Y-77001426D01*
X92685370Y-77001436D01*
X92685371Y-77001441D01*
X92685372Y-77001443D01*
X92685375Y-77001454D01*
X92708366Y-77077245D01*
X92779344Y-77311232D01*
X92902936Y-77609602D01*
X92903182Y-77610208D01*
X92903224Y-77610298D01*
X93025864Y-77839739D01*
X93055798Y-77895742D01*
X93055809Y-77895760D01*
X93235636Y-78164889D01*
X93235642Y-78164898D01*
X93235653Y-78164912D01*
X93235655Y-78164915D01*
X93441001Y-78415129D01*
X93669868Y-78643996D01*
X93669943Y-78644063D01*
X93670464Y-78644485D01*
X93920102Y-78849358D01*
X94033773Y-78925311D01*
X94189247Y-79029196D01*
X94189920Y-79029569D01*
X94190720Y-79029983D01*
X94327771Y-79103238D01*
X94469410Y-79178946D01*
X94473454Y-79181107D01*
X94473558Y-79181163D01*
X94473617Y-79181194D01*
X94478188Y-79183637D01*
X94483160Y-79185280D01*
X94656980Y-79257278D01*
X94656982Y-79257279D01*
X94769722Y-79303978D01*
X94769723Y-79303979D01*
X94770810Y-79304475D01*
X94772956Y-79305330D01*
X94773708Y-79305636D01*
X94773766Y-79305653D01*
X94773772Y-79305656D01*
X94773776Y-79305657D01*
X94773778Y-79305658D01*
X95081972Y-79399147D01*
X95081989Y-79399153D01*
X95082231Y-79399226D01*
X95083536Y-79399622D01*
X95083542Y-79399623D01*
X95083545Y-79399624D01*
X95083556Y-79399627D01*
X95083612Y-79399638D01*
X95084165Y-79399768D01*
X95085390Y-79399992D01*
X95282587Y-79439216D01*
X95282624Y-79439223D01*
X95401013Y-79462772D01*
X95723152Y-79494500D01*
X95723155Y-79494500D01*
X96046845Y-79494500D01*
X96046848Y-79494500D01*
X96368987Y-79462772D01*
X96526128Y-79431514D01*
X96680598Y-79400789D01*
X96680645Y-79400783D01*
X96684290Y-79400055D01*
X96686443Y-79399627D01*
X96686454Y-79399624D01*
X96686454Y-79399623D01*
X96686462Y-79399622D01*
X96686464Y-79399622D01*
X96686465Y-79399621D01*
X96686724Y-79399570D01*
X96688168Y-79399155D01*
X96716737Y-79391364D01*
X96718462Y-79390098D01*
X96724668Y-79388032D01*
X96996222Y-79305658D01*
X97000276Y-79303979D01*
X97013332Y-79298570D01*
X97295279Y-79181784D01*
X97580754Y-79029195D01*
X97849898Y-78849358D01*
X98100119Y-78644007D01*
X98329007Y-78415119D01*
X98534358Y-78164898D01*
X98714195Y-77895754D01*
X98866784Y-77610279D01*
X98990658Y-77311222D01*
X99084622Y-77001464D01*
X99084624Y-77001454D01*
X99084627Y-77001443D01*
X99125664Y-76795132D01*
X99147772Y-76683987D01*
X99179500Y-76361848D01*
X99179500Y-76038152D01*
X99152033Y-75759278D01*
X99147772Y-75716012D01*
X99097401Y-75462780D01*
X99097401Y-75462779D01*
X99084991Y-75400386D01*
X99084761Y-75399129D01*
X99084630Y-75398572D01*
X99084627Y-75398556D01*
X99084624Y-75398545D01*
X99084623Y-75398542D01*
X99084622Y-75398536D01*
X98990658Y-75088778D01*
X98990653Y-75088766D01*
X98942279Y-74971982D01*
X98866784Y-74789721D01*
X98714195Y-74504246D01*
X98534358Y-74235102D01*
X98329496Y-73985476D01*
X98328998Y-73984870D01*
X98100129Y-73756001D01*
X98010287Y-73682270D01*
X97851208Y-73551717D01*
X97850210Y-73550875D01*
X97849919Y-73550657D01*
X97849909Y-73550650D01*
X97849902Y-73550645D01*
X97849898Y-73550642D01*
X97600095Y-73383728D01*
X97580768Y-73370814D01*
X97580760Y-73370809D01*
X97580754Y-73370805D01*
X97580749Y-73370802D01*
X97580742Y-73370798D01*
X97580733Y-73370793D01*
X97580726Y-73370789D01*
X97295298Y-73218225D01*
X97295290Y-73218221D01*
X97295286Y-73218219D01*
X97295281Y-73218217D01*
X97295282Y-73218217D01*
X97295208Y-73218182D01*
X97294632Y-73217948D01*
X97237219Y-73194166D01*
X96996232Y-73094344D01*
X96832372Y-73044638D01*
X96686454Y-73000375D01*
X96686443Y-73000372D01*
X96686441Y-73000371D01*
X96686436Y-73000370D01*
X96686426Y-73000367D01*
X96369018Y-72937233D01*
X96369003Y-72937230D01*
X96368969Y-72937225D01*
X96125373Y-72913234D01*
X96119464Y-72912652D01*
X96046848Y-72905500D01*
X96046845Y-72905500D01*
X95723154Y-72905500D01*
X95723152Y-72905500D01*
X95711203Y-72906676D01*
X95650527Y-72912651D01*
X95650527Y-72912652D01*
X95602111Y-72917420D01*
X95401029Y-72937225D01*
X95400995Y-72937230D01*
X95400980Y-72937233D01*
X95083572Y-73000367D01*
X95083562Y-73000370D01*
X95083550Y-73000373D01*
X95083545Y-73000375D01*
X95033819Y-73015458D01*
X94773766Y-73094344D01*
X94475396Y-73217936D01*
X94474801Y-73218178D01*
X94474700Y-73218224D01*
X94189266Y-73370793D01*
X94189247Y-73370804D01*
X94189241Y-73370807D01*
X93920105Y-73550639D01*
X93920086Y-73550653D01*
X93920083Y-73550655D01*
X93669869Y-73756001D01*
X93441001Y-73984869D01*
X93235655Y-74235083D01*
X93235653Y-74235086D01*
X93235639Y-74235105D01*
X93055807Y-74504241D01*
X93055804Y-74504247D01*
X93055793Y-74504266D01*
X92903224Y-74789700D01*
X92903178Y-74789801D01*
X92902936Y-74790396D01*
X92779344Y-75088766D01*
X92725076Y-75267666D01*
X92685871Y-75396912D01*
X92685370Y-75398562D01*
X92685367Y-75398572D01*
X92622233Y-75715980D01*
X92622230Y-75715995D01*
X92622229Y-75716006D01*
X92622226Y-75716023D01*
X92590500Y-76038155D01*
X91294020Y-76038155D01*
X91277540Y-75934103D01*
X91277539Y-75934099D01*
X91277539Y-75934098D01*
X91222310Y-75764121D01*
X91222309Y-75764119D01*
X91219964Y-75759278D01*
X91219019Y-75757663D01*
X91197798Y-75716013D01*
X91141167Y-75604868D01*
X91036111Y-75460272D01*
X90987127Y-75411288D01*
X90965975Y-75383032D01*
X90958483Y-75369311D01*
X90943631Y-75301051D01*
X90943760Y-75299242D01*
X90963126Y-75241047D01*
X90967319Y-75234523D01*
X90983941Y-75213897D01*
X91036111Y-75161728D01*
X91141167Y-75017132D01*
X91222309Y-74857881D01*
X91222310Y-74857878D01*
X91277539Y-74687901D01*
X91277539Y-74687900D01*
X91277540Y-74687897D01*
X91305500Y-74511366D01*
X91305500Y-74332634D01*
X91277540Y-74156103D01*
X91277539Y-74156099D01*
X91277539Y-74156098D01*
X91222310Y-73986121D01*
X91222308Y-73986118D01*
X91184244Y-73911411D01*
X91141167Y-73826868D01*
X91036111Y-73682272D01*
X90987127Y-73633288D01*
X90965975Y-73605032D01*
X90958483Y-73591311D01*
X90943631Y-73523051D01*
X90943760Y-73521242D01*
X90963126Y-73463047D01*
X90967319Y-73456523D01*
X90983941Y-73435897D01*
X91036111Y-73383728D01*
X91141167Y-73239132D01*
X91222309Y-73079881D01*
X91248143Y-73000372D01*
X91277539Y-72909901D01*
X91277539Y-72909900D01*
X91277540Y-72909897D01*
X91305500Y-72733366D01*
X91305500Y-72554634D01*
X91277540Y-72378103D01*
X91277539Y-72378099D01*
X91277539Y-72378098D01*
X91222310Y-72208121D01*
X91222308Y-72208118D01*
X91141166Y-72048867D01*
X91036111Y-71904272D01*
X90987127Y-71855288D01*
X90965975Y-71827032D01*
X90958483Y-71813311D01*
X90943631Y-71745051D01*
X90943760Y-71743242D01*
X90963126Y-71685047D01*
X90967319Y-71678523D01*
X90983941Y-71657897D01*
X91036111Y-71605728D01*
X91141167Y-71461132D01*
X91222309Y-71301881D01*
X91277540Y-71131897D01*
X91305500Y-70955366D01*
X91305500Y-70776634D01*
X91277540Y-70600103D01*
X91277539Y-70600099D01*
X91277539Y-70600098D01*
X91222310Y-70430121D01*
X91222308Y-70430118D01*
X91141166Y-70270867D01*
X91083362Y-70191307D01*
X91066891Y-70160091D01*
X91061639Y-70145371D01*
X91057651Y-70075615D01*
X91057652Y-70075609D01*
X91060011Y-70065467D01*
X91080470Y-70020672D01*
X91141167Y-69937132D01*
X91222309Y-69777881D01*
X91277540Y-69607897D01*
X91305500Y-69431366D01*
X91305500Y-69252634D01*
X91277540Y-69076103D01*
X91277539Y-69076099D01*
X91277539Y-69076098D01*
X91222310Y-68906121D01*
X91222308Y-68906118D01*
X91141166Y-68746867D01*
X91083362Y-68667307D01*
X91066891Y-68636091D01*
X91061639Y-68621371D01*
X91057651Y-68551615D01*
X91057652Y-68551609D01*
X91060011Y-68541467D01*
X91080470Y-68496672D01*
X91141167Y-68413132D01*
X91222309Y-68253881D01*
X91277540Y-68083897D01*
X91305500Y-67907366D01*
X91305500Y-67728634D01*
X91277540Y-67552103D01*
X91277539Y-67552099D01*
X91277539Y-67552098D01*
X91222310Y-67382121D01*
X91222306Y-67382113D01*
X91181856Y-67302725D01*
X91170475Y-67269326D01*
X91167912Y-67255678D01*
X91174886Y-67186159D01*
X91218334Y-67131448D01*
X91221094Y-67129503D01*
X91272255Y-67108537D01*
X91274202Y-67108214D01*
X91294455Y-67106550D01*
X106598091Y-67106550D01*
X106633025Y-67111573D01*
G37*
%TD.AperFunction*%
%TD*%
M02*
