%TF.GenerationSoftware,KiCad,Pcbnew,10.0.0*%
%TF.CreationDate,2026-04-11T16:33:57-07:00*%
%TF.ProjectId,GPS-antenna_prototype,4750532d-616e-4746-956e-6e615f70726f,rev?*%
%TF.SameCoordinates,Original*%
%TF.FileFunction,Profile,NP*%
%FSLAX46Y46*%
G04 Gerber Fmt 4.6, Leading zero omitted, Abs format (unit mm)*
G04 Created by KiCad (PCBNEW 10.0.0) date 2026-04-11 16:33:57*
%MOMM*%
%LPD*%
G01*
G04 APERTURE LIST*
%TA.AperFunction,Profile*%
%ADD10C,0.050000*%
%TD*%
%TA.AperFunction,Profile*%
%ADD11C,0.100000*%
%TD*%
G04 APERTURE END LIST*
D10*
X84455000Y-105074600D02*
X84460000Y-146444600D01*
X84460000Y-57544600D02*
X84455000Y-96494600D01*
X76200000Y-105074600D02*
X76200000Y-102534600D01*
X76200000Y-99034600D02*
X76200000Y-96494600D01*
X73665000Y-34684600D02*
X73665000Y-57544600D01*
X73665000Y-34684600D02*
X82555000Y-34684600D01*
X73665000Y-169304600D02*
X73665000Y-146444600D01*
X73665000Y-169304600D02*
X82555000Y-169304600D01*
X80599200Y-38494600D02*
G75*
G02*
X75620800Y-38494600I-2489200J0D01*
G01*
X75620800Y-38494600D02*
G75*
G02*
X80599200Y-38494600I2489200J0D01*
G01*
X80599200Y-165494600D02*
G75*
G02*
X75620800Y-165494600I-2489200J0D01*
G01*
X75620800Y-165494600D02*
G75*
G02*
X80599200Y-165494600I2489200J0D01*
G01*
X82555000Y-51194600D02*
X82555000Y-34684600D01*
X82555000Y-152794600D02*
X82555000Y-169304600D01*
X84510000Y-51644600D02*
G75*
G02*
X83910000Y-51644600I-300000J0D01*
G01*
X83910000Y-51644600D02*
G75*
G02*
X84510000Y-51644600I300000J0D01*
G01*
X84510000Y-52444600D02*
G75*
G02*
X83910000Y-52444600I-300000J0D01*
G01*
X83910000Y-52444600D02*
G75*
G02*
X84510000Y-52444600I300000J0D01*
G01*
X84510000Y-53244600D02*
G75*
G02*
X83910000Y-53244600I-300000J0D01*
G01*
X83910000Y-53244600D02*
G75*
G02*
X84510000Y-53244600I300000J0D01*
G01*
X84510000Y-53944600D02*
G75*
G02*
X83910000Y-53944600I-300000J0D01*
G01*
X83910000Y-53944600D02*
G75*
G02*
X84510000Y-53944600I300000J0D01*
G01*
X84510000Y-54644600D02*
G75*
G02*
X83910000Y-54644600I-300000J0D01*
G01*
X83910000Y-54644600D02*
G75*
G02*
X84510000Y-54644600I300000J0D01*
G01*
X84510000Y-55444600D02*
G75*
G02*
X83910000Y-55444600I-300000J0D01*
G01*
X83910000Y-55444600D02*
G75*
G02*
X84510000Y-55444600I300000J0D01*
G01*
X84510000Y-56244600D02*
G75*
G02*
X83910000Y-56244600I-300000J0D01*
G01*
X83910000Y-56244600D02*
G75*
G02*
X84510000Y-56244600I300000J0D01*
G01*
X84510000Y-57044600D02*
G75*
G02*
X83910000Y-57044600I-300000J0D01*
G01*
X83910000Y-57044600D02*
G75*
G02*
X84510000Y-57044600I300000J0D01*
G01*
X84510000Y-146894600D02*
G75*
G02*
X83910000Y-146894600I-300000J0D01*
G01*
X83910000Y-146894600D02*
G75*
G02*
X84510000Y-146894600I300000J0D01*
G01*
X84510000Y-147694600D02*
G75*
G02*
X83910000Y-147694600I-300000J0D01*
G01*
X83910000Y-147694600D02*
G75*
G02*
X84510000Y-147694600I300000J0D01*
G01*
X84510000Y-148494600D02*
G75*
G02*
X83910000Y-148494600I-300000J0D01*
G01*
X83910000Y-148494600D02*
G75*
G02*
X84510000Y-148494600I300000J0D01*
G01*
X84510000Y-149194600D02*
G75*
G02*
X83910000Y-149194600I-300000J0D01*
G01*
X83910000Y-149194600D02*
G75*
G02*
X84510000Y-149194600I300000J0D01*
G01*
X84510000Y-149894600D02*
G75*
G02*
X83910000Y-149894600I-300000J0D01*
G01*
X83910000Y-149894600D02*
G75*
G02*
X84510000Y-149894600I300000J0D01*
G01*
X84510000Y-150694600D02*
G75*
G02*
X83910000Y-150694600I-300000J0D01*
G01*
X83910000Y-150694600D02*
G75*
G02*
X84510000Y-150694600I300000J0D01*
G01*
X84510000Y-151494600D02*
G75*
G02*
X83910000Y-151494600I-300000J0D01*
G01*
X83910000Y-151494600D02*
G75*
G02*
X84510000Y-151494600I300000J0D01*
G01*
X84510000Y-152294600D02*
G75*
G02*
X83910000Y-152294600I-300000J0D01*
G01*
X83910000Y-152294600D02*
G75*
G02*
X84510000Y-152294600I300000J0D01*
G01*
X84455000Y-105074600D02*
X76200000Y-105074600D01*
X84460000Y-51194600D02*
X82555000Y-51194600D01*
X84460000Y-57544600D02*
X73665000Y-57544600D01*
X84460000Y-146444600D02*
X73665000Y-146444600D01*
X84460000Y-152794600D02*
X82555000Y-152794600D01*
X92334000Y-63894600D02*
G75*
G02*
X86746000Y-63894600I-2794000J0D01*
G01*
X86746000Y-63894600D02*
G75*
G02*
X92334000Y-63894600I2794000J0D01*
G01*
X91445000Y-82944600D02*
G75*
G02*
X87635000Y-82944600I-1905000J0D01*
G01*
X87635000Y-82944600D02*
G75*
G02*
X91445000Y-82944600I1905000J0D01*
G01*
X92080000Y-108027100D02*
G75*
G02*
X87000000Y-108027100I-2540000J0D01*
G01*
X87000000Y-108027100D02*
G75*
G02*
X92080000Y-108027100I2540000J0D01*
G01*
X91445000Y-121044600D02*
G75*
G02*
X87635000Y-121044600I-1905000J0D01*
G01*
X87635000Y-121044600D02*
G75*
G02*
X91445000Y-121044600I1905000J0D01*
G01*
X92334000Y-140094600D02*
G75*
G02*
X86746000Y-140094600I-2794000J0D01*
G01*
X86746000Y-140094600D02*
G75*
G02*
X92334000Y-140094600I2794000J0D01*
G01*
X100335000Y-51194600D02*
X84460000Y-51194600D01*
X100335000Y-152794600D02*
X84460000Y-152794600D01*
X144785000Y-95644600D02*
X100335000Y-51194600D01*
X144785000Y-146444600D02*
X100335000Y-152794600D01*
X144785000Y-146444600D02*
X144785000Y-95644600D01*
X84455000Y-96494600D02*
X76200000Y-96494600D01*
%TO.C,J1*%
D11*
X80700000Y-102534600D02*
X80700000Y-99034600D01*
X80700000Y-99034600D02*
X76200000Y-99034600D01*
X76200000Y-102534600D02*
X80700000Y-102534600D01*
%TD*%
M02*
