%TF.GenerationSoftware,KiCad,Pcbnew,10.0.0*%
%TF.CreationDate,2026-04-11T16:33:57-07:00*%
%TF.ProjectId,GPS-antenna_prototype,4750532d-616e-4746-956e-6e615f70726f,rev?*%
%TF.SameCoordinates,Original*%
%TF.FileFunction,Copper,L1,Top*%
%TF.FilePolarity,Positive*%
%FSLAX46Y46*%
G04 Gerber Fmt 4.6, Leading zero omitted, Abs format (unit mm)*
G04 Created by KiCad (PCBNEW 10.0.0) date 2026-04-11 16:33:57*
%MOMM*%
%LPD*%
G01*
G04 APERTURE LIST*
G04 Aperture macros list*
%AMFreePoly0*
4,1,8,1.500000,-0.700000,-1.500000,-0.700000,-6.000000,-0.700000,-6.000000,-0.150000,-1.500000,-0.150000,-1.500000,0.700000,1.500000,0.700000,1.500000,-0.700000,1.500000,-0.700000,$1*%
%AMFreePoly1*
4,1,7,1.500000,-0.700000,-1.500000,-0.700000,-1.500000,0.150000,-6.000000,0.150000,-6.000000,0.700000,1.500000,0.700000,1.500000,-0.700000,1.500000,-0.700000,$1*%
G04 Aperture macros list end*
%TA.AperFunction,SMDPad,CuDef*%
%ADD10FreePoly0,0.000000*%
%TD*%
%TA.AperFunction,SMDPad,CuDef*%
%ADD11FreePoly1,0.000000*%
%TD*%
%TA.AperFunction,SMDPad,CuDef*%
%ADD12R,2.000000X1.100000*%
%TD*%
%TA.AperFunction,ViaPad*%
%ADD13C,0.600000*%
%TD*%
%TA.AperFunction,Conductor*%
%ADD14C,0.610000*%
%TD*%
%TA.AperFunction,Conductor*%
%ADD15C,0.600000*%
%TD*%
%TA.AperFunction,Conductor*%
%ADD16C,1.470000*%
%TD*%
G04 APERTURE END LIST*
%TA.AperFunction,Conductor*%
%TO.N,RadElement*%
G36*
X84460000Y-100049600D02*
G01*
X142960000Y-100049600D01*
X142960000Y-101519600D01*
X84460000Y-101519600D01*
X84460000Y-100049600D01*
G37*
%TD.AperFunction*%
%TD*%
D10*
%TO.P,J1,2,Ext*%
%TO.N,GroundPlane*%
X82200000Y-102384600D03*
D11*
X82200000Y-99184600D03*
D12*
%TO.P,J1,1,In*%
%TO.N,RadElement*%
X82700000Y-100784600D03*
%TD*%
D13*
%TO.N,GroundPlane*%
X84625000Y-99525000D03*
X84625000Y-98325000D03*
X84025000Y-98325000D03*
X84025000Y-98925000D03*
X84025000Y-99525000D03*
X84625000Y-98925000D03*
X84050000Y-102625000D03*
X84650000Y-102625000D03*
X84050000Y-102025000D03*
X84050000Y-103225000D03*
X84650000Y-103225000D03*
X84650000Y-102025000D03*
%TD*%
%TO.N,GroundPlane*%
D14*
X84025000Y-98325000D02*
X84025000Y-99525000D01*
X84625000Y-98325000D02*
X84625000Y-99525000D01*
X84625000Y-98325000D02*
X83059600Y-98325000D01*
X83059600Y-98325000D02*
X82200000Y-99184600D01*
X84625000Y-98925000D02*
X82459600Y-98925000D01*
X82459600Y-98925000D02*
X82200000Y-99184600D01*
X84625000Y-99525000D02*
X82540400Y-99525000D01*
X82540400Y-99525000D02*
X82200000Y-99184600D01*
X84650000Y-102625000D02*
X82440400Y-102625000D01*
X82440400Y-102625000D02*
X82200000Y-102384600D01*
X84650000Y-103225000D02*
X83040400Y-103225000D01*
X83040400Y-103225000D02*
X82200000Y-102384600D01*
X84050000Y-103225000D02*
X84050000Y-102025000D01*
X84650000Y-102025000D02*
X84650000Y-103225000D01*
X84650000Y-102025000D02*
X82559600Y-102025000D01*
X82559600Y-102025000D02*
X82200000Y-102384600D01*
D15*
X82434600Y-98950000D02*
X82200000Y-99184600D01*
X82565400Y-99550000D02*
X82200000Y-99184600D01*
%TO.N,RadElement*%
D16*
X82700000Y-100784600D02*
X113710000Y-100784600D01*
%TD*%
M02*
