%TF.GenerationSoftware,KiCad,Pcbnew,10.0.0*%
%TF.CreationDate,2026-07-01T13:30:04-07:00*%
%TF.ProjectId,GPS-antenna_prototype,4750532d-616e-4746-956e-6e615f70726f,rev?*%
%TF.SameCoordinates,Original*%
%TF.FileFunction,Profile,NP*%
%FSLAX46Y46*%
G04 Gerber Fmt 4.6, Leading zero omitted, Abs format (unit mm)*
G04 Created by KiCad (PCBNEW 10.0.0) date 2026-07-01 13:30:04*
%MOMM*%
%LPD*%
G01*
G04 APERTURE LIST*
%TA.AperFunction,Profile*%
%ADD10C,0.050000*%
%TD*%
%TA.AperFunction,Profile*%
%ADD11C,0.100000*%
%TD*%
G04 APERTURE END LIST*
D10*
X76200000Y-46990000D02*
X76200000Y-97155000D01*
X76200000Y-46990000D02*
X88900000Y-46990000D01*
X76200000Y-97155000D02*
X90805000Y-97155000D01*
X76200000Y-131445000D02*
X90805000Y-131445000D01*
X76200000Y-181610000D02*
X76200000Y-131445000D01*
X76200000Y-181610000D02*
X88900000Y-181610000D01*
X82545000Y-114445400D02*
X82545000Y-111905400D01*
X82545000Y-120485400D02*
X82545000Y-117945400D01*
X86944200Y-50800000D02*
G75*
G02*
X81965800Y-50800000I-2489200J0D01*
G01*
X81965800Y-50800000D02*
G75*
G02*
X86944200Y-50800000I2489200J0D01*
G01*
X86944200Y-177800000D02*
G75*
G02*
X81965800Y-177800000I-2489200J0D01*
G01*
X81965800Y-177800000D02*
G75*
G02*
X86944200Y-177800000I2489200J0D01*
G01*
X88900000Y-63500000D02*
X88900000Y-46990000D01*
X88900000Y-165100000D02*
X88900000Y-181610000D01*
X90805000Y-64770000D02*
G75*
G02*
X89535000Y-64770000I-635000J0D01*
G01*
X89535000Y-64770000D02*
G75*
G02*
X90805000Y-64770000I635000J0D01*
G01*
X90805000Y-66294000D02*
G75*
G02*
X89535000Y-66294000I-635000J0D01*
G01*
X89535000Y-66294000D02*
G75*
G02*
X90805000Y-66294000I635000J0D01*
G01*
X90805000Y-67818000D02*
G75*
G02*
X89535000Y-67818000I-635000J0D01*
G01*
X89535000Y-67818000D02*
G75*
G02*
X90805000Y-67818000I635000J0D01*
G01*
X90805000Y-69342000D02*
G75*
G02*
X89535000Y-69342000I-635000J0D01*
G01*
X89535000Y-69342000D02*
G75*
G02*
X90805000Y-69342000I635000J0D01*
G01*
X90805000Y-70866000D02*
G75*
G02*
X89535000Y-70866000I-635000J0D01*
G01*
X89535000Y-70866000D02*
G75*
G02*
X90805000Y-70866000I635000J0D01*
G01*
X90805000Y-72644000D02*
G75*
G02*
X89535000Y-72644000I-635000J0D01*
G01*
X89535000Y-72644000D02*
G75*
G02*
X90805000Y-72644000I635000J0D01*
G01*
X90805000Y-74422000D02*
G75*
G02*
X89535000Y-74422000I-635000J0D01*
G01*
X89535000Y-74422000D02*
G75*
G02*
X90805000Y-74422000I635000J0D01*
G01*
X90805000Y-76200000D02*
G75*
G02*
X89535000Y-76200000I-635000J0D01*
G01*
X89535000Y-76200000D02*
G75*
G02*
X90805000Y-76200000I635000J0D01*
G01*
X90805000Y-77978000D02*
G75*
G02*
X89535000Y-77978000I-635000J0D01*
G01*
X89535000Y-77978000D02*
G75*
G02*
X90805000Y-77978000I635000J0D01*
G01*
X90805000Y-79756000D02*
G75*
G02*
X89535000Y-79756000I-635000J0D01*
G01*
X89535000Y-79756000D02*
G75*
G02*
X90805000Y-79756000I635000J0D01*
G01*
X90805000Y-81534000D02*
G75*
G02*
X89535000Y-81534000I-635000J0D01*
G01*
X89535000Y-81534000D02*
G75*
G02*
X90805000Y-81534000I635000J0D01*
G01*
X90805000Y-83312000D02*
G75*
G02*
X89535000Y-83312000I-635000J0D01*
G01*
X89535000Y-83312000D02*
G75*
G02*
X90805000Y-83312000I635000J0D01*
G01*
X90805000Y-85090000D02*
G75*
G02*
X89535000Y-85090000I-635000J0D01*
G01*
X89535000Y-85090000D02*
G75*
G02*
X90805000Y-85090000I635000J0D01*
G01*
X90805000Y-86868000D02*
G75*
G02*
X89535000Y-86868000I-635000J0D01*
G01*
X89535000Y-86868000D02*
G75*
G02*
X90805000Y-86868000I635000J0D01*
G01*
X90805000Y-88646000D02*
G75*
G02*
X89535000Y-88646000I-635000J0D01*
G01*
X89535000Y-88646000D02*
G75*
G02*
X90805000Y-88646000I635000J0D01*
G01*
X90805000Y-90424000D02*
G75*
G02*
X89535000Y-90424000I-635000J0D01*
G01*
X89535000Y-90424000D02*
G75*
G02*
X90805000Y-90424000I635000J0D01*
G01*
X90805000Y-92202000D02*
G75*
G02*
X89535000Y-92202000I-635000J0D01*
G01*
X89535000Y-92202000D02*
G75*
G02*
X90805000Y-92202000I635000J0D01*
G01*
X90805000Y-93980000D02*
G75*
G02*
X89535000Y-93980000I-635000J0D01*
G01*
X89535000Y-93980000D02*
G75*
G02*
X90805000Y-93980000I635000J0D01*
G01*
X90805000Y-95758000D02*
G75*
G02*
X89535000Y-95758000I-635000J0D01*
G01*
X89535000Y-95758000D02*
G75*
G02*
X90805000Y-95758000I635000J0D01*
G01*
X90805000Y-132842000D02*
G75*
G02*
X89535000Y-132842000I-635000J0D01*
G01*
X89535000Y-132842000D02*
G75*
G02*
X90805000Y-132842000I635000J0D01*
G01*
X90805000Y-134366000D02*
G75*
G02*
X89535000Y-134366000I-635000J0D01*
G01*
X89535000Y-134366000D02*
G75*
G02*
X90805000Y-134366000I635000J0D01*
G01*
X90805000Y-135890000D02*
G75*
G02*
X89535000Y-135890000I-635000J0D01*
G01*
X89535000Y-135890000D02*
G75*
G02*
X90805000Y-135890000I635000J0D01*
G01*
X90805000Y-137414000D02*
G75*
G02*
X89535000Y-137414000I-635000J0D01*
G01*
X89535000Y-137414000D02*
G75*
G02*
X90805000Y-137414000I635000J0D01*
G01*
X90805000Y-138938000D02*
G75*
G02*
X89535000Y-138938000I-635000J0D01*
G01*
X89535000Y-138938000D02*
G75*
G02*
X90805000Y-138938000I635000J0D01*
G01*
X90805000Y-140716000D02*
G75*
G02*
X89535000Y-140716000I-635000J0D01*
G01*
X89535000Y-140716000D02*
G75*
G02*
X90805000Y-140716000I635000J0D01*
G01*
X90805000Y-142494000D02*
G75*
G02*
X89535000Y-142494000I-635000J0D01*
G01*
X89535000Y-142494000D02*
G75*
G02*
X90805000Y-142494000I635000J0D01*
G01*
X90805000Y-144272000D02*
G75*
G02*
X89535000Y-144272000I-635000J0D01*
G01*
X89535000Y-144272000D02*
G75*
G02*
X90805000Y-144272000I635000J0D01*
G01*
X90805000Y-146050000D02*
G75*
G02*
X89535000Y-146050000I-635000J0D01*
G01*
X89535000Y-146050000D02*
G75*
G02*
X90805000Y-146050000I635000J0D01*
G01*
X90805000Y-147828000D02*
G75*
G02*
X89535000Y-147828000I-635000J0D01*
G01*
X89535000Y-147828000D02*
G75*
G02*
X90805000Y-147828000I635000J0D01*
G01*
X90805000Y-149606000D02*
G75*
G02*
X89535000Y-149606000I-635000J0D01*
G01*
X89535000Y-149606000D02*
G75*
G02*
X90805000Y-149606000I635000J0D01*
G01*
X90805000Y-151384000D02*
G75*
G02*
X89535000Y-151384000I-635000J0D01*
G01*
X89535000Y-151384000D02*
G75*
G02*
X90805000Y-151384000I635000J0D01*
G01*
X90805000Y-153162000D02*
G75*
G02*
X89535000Y-153162000I-635000J0D01*
G01*
X89535000Y-153162000D02*
G75*
G02*
X90805000Y-153162000I635000J0D01*
G01*
X90805000Y-154940000D02*
G75*
G02*
X89535000Y-154940000I-635000J0D01*
G01*
X89535000Y-154940000D02*
G75*
G02*
X90805000Y-154940000I635000J0D01*
G01*
X90805000Y-156718000D02*
G75*
G02*
X89535000Y-156718000I-635000J0D01*
G01*
X89535000Y-156718000D02*
G75*
G02*
X90805000Y-156718000I635000J0D01*
G01*
X90805000Y-158496000D02*
G75*
G02*
X89535000Y-158496000I-635000J0D01*
G01*
X89535000Y-158496000D02*
G75*
G02*
X90805000Y-158496000I635000J0D01*
G01*
X90805000Y-160274000D02*
G75*
G02*
X89535000Y-160274000I-635000J0D01*
G01*
X89535000Y-160274000D02*
G75*
G02*
X90805000Y-160274000I635000J0D01*
G01*
X90805000Y-162052000D02*
G75*
G02*
X89535000Y-162052000I-635000J0D01*
G01*
X89535000Y-162052000D02*
G75*
G02*
X90805000Y-162052000I635000J0D01*
G01*
X90805000Y-163830000D02*
G75*
G02*
X89535000Y-163830000I-635000J0D01*
G01*
X89535000Y-163830000D02*
G75*
G02*
X90805000Y-163830000I635000J0D01*
G01*
X90800000Y-111905400D02*
X82545000Y-111905400D01*
X90800000Y-120485400D02*
X82545000Y-120485400D01*
X90805000Y-63500000D02*
X88900000Y-63500000D01*
X90805000Y-97155000D02*
X90800000Y-111905400D01*
X90805000Y-131445000D02*
X90800000Y-120485400D01*
X90805000Y-165100000D02*
X88900000Y-165100000D01*
X98679000Y-76200000D02*
G75*
G02*
X93091000Y-76200000I-2794000J0D01*
G01*
X93091000Y-76200000D02*
G75*
G02*
X98679000Y-76200000I2794000J0D01*
G01*
X97790000Y-95250000D02*
G75*
G02*
X93980000Y-95250000I-1905000J0D01*
G01*
X93980000Y-95250000D02*
G75*
G02*
X97790000Y-95250000I1905000J0D01*
G01*
X98425000Y-120332500D02*
G75*
G02*
X93345000Y-120332500I-2540000J0D01*
G01*
X93345000Y-120332500D02*
G75*
G02*
X98425000Y-120332500I2540000J0D01*
G01*
X97790000Y-133350000D02*
G75*
G02*
X93980000Y-133350000I-1905000J0D01*
G01*
X93980000Y-133350000D02*
G75*
G02*
X97790000Y-133350000I1905000J0D01*
G01*
X98679000Y-152400000D02*
G75*
G02*
X93091000Y-152400000I-2794000J0D01*
G01*
X93091000Y-152400000D02*
G75*
G02*
X98679000Y-152400000I2794000J0D01*
G01*
X106680000Y-63500000D02*
X90805000Y-63500000D01*
X106680000Y-165100000D02*
X90805000Y-165100000D01*
X151125000Y-113905400D02*
X106680000Y-63500000D01*
X151130000Y-158750000D02*
X106680000Y-165100000D01*
X151130000Y-158750000D02*
X151125000Y-113905400D01*
%TO.C,J1*%
D11*
X82545000Y-117945400D02*
X87045000Y-117945400D01*
X87045000Y-114445400D02*
X82545000Y-114445400D01*
X87045000Y-117945400D02*
X87045000Y-114445400D01*
%TD*%
M02*
