M48
; DRILL file KiCad 10.0.0 date 2026-07-01T13:20:48
; FORMAT={-:-/ absolute / metric / decimal}
; #@! TF.CreationDate,2026-07-01T13:20:48-07:00
; #@! TF.GenerationSoftware,Kicad,Pcbnew,10.0.0
; #@! TF.FileFunction,Plated,1,2,PTH
FMAT,2
METRIC
; #@! TA.AperFunction,Plated,PTH,ViaDrill
T1C0.300
%
G90
G05
T1
X154.251Y-98.535
X154.251Y-102.235
X155.838Y-98.535
X155.838Y-102.235
X157.424Y-98.535
X157.424Y-102.235
X159.011Y-98.535
X159.011Y-102.235
X160.597Y-98.535
X160.597Y-102.235
X162.184Y-98.535
X162.184Y-102.235
X163.771Y-98.535
X163.771Y-102.235
X165.357Y-98.535
X165.357Y-102.235
X166.944Y-98.535
X166.944Y-102.235
X168.531Y-98.535
X168.531Y-102.235
X170.117Y-98.535
X170.117Y-102.235
X171.704Y-98.535
X171.704Y-102.235
X173.357Y-98.535
X173.357Y-102.235
X174.943Y-98.535
X174.943Y-102.235
X176.53Y-98.535
X176.53Y-102.235
M30
