%TF.GenerationSoftware,KiCad,Pcbnew,10.0.0*%
%TF.CreationDate,2026-07-01T13:20:09-07:00*%
%TF.ProjectId,F-antenna_P1,462d616e-7465-46e6-9e61-5f50312e6b69,rev?*%
%TF.SameCoordinates,Original*%
%TF.FileFunction,Profile,NP*%
%FSLAX46Y46*%
G04 Gerber Fmt 4.6, Leading zero omitted, Abs format (unit mm)*
G04 Created by KiCad (PCBNEW 10.0.0) date 2026-07-01 13:20:09*
%MOMM*%
%LPD*%
G01*
G04 APERTURE LIST*
%TA.AperFunction,Profile*%
%ADD10C,0.050000*%
%TD*%
%TA.AperFunction,Profile*%
%ADD11C,0.100000*%
%TD*%
G04 APERTURE END LIST*
D10*
X138430000Y-37465000D02*
X138430000Y-87630000D01*
X138430000Y-37465000D02*
X151130000Y-37465000D01*
X138430000Y-87630000D02*
X153035000Y-87630000D01*
X138430000Y-121920000D02*
X153035000Y-121920000D01*
X138430000Y-172085000D02*
X138430000Y-121920000D01*
X138430000Y-172085000D02*
X151130000Y-172085000D01*
X144780000Y-97155000D02*
X144780000Y-98650000D01*
X144780000Y-102150000D02*
X144780000Y-103657400D01*
X149174200Y-41275000D02*
G75*
G02*
X144195800Y-41275000I-2489200J0D01*
G01*
X144195800Y-41275000D02*
G75*
G02*
X149174200Y-41275000I2489200J0D01*
G01*
X149174200Y-168275000D02*
G75*
G02*
X144195800Y-168275000I-2489200J0D01*
G01*
X144195800Y-168275000D02*
G75*
G02*
X149174200Y-168275000I2489200J0D01*
G01*
X151130000Y-53975000D02*
X151130000Y-37465000D01*
X151130000Y-155575000D02*
X151130000Y-172085000D01*
X153035000Y-55245000D02*
G75*
G02*
X151765000Y-55245000I-635000J0D01*
G01*
X151765000Y-55245000D02*
G75*
G02*
X153035000Y-55245000I635000J0D01*
G01*
X153035000Y-56769000D02*
G75*
G02*
X151765000Y-56769000I-635000J0D01*
G01*
X151765000Y-56769000D02*
G75*
G02*
X153035000Y-56769000I635000J0D01*
G01*
X153035000Y-58293000D02*
G75*
G02*
X151765000Y-58293000I-635000J0D01*
G01*
X151765000Y-58293000D02*
G75*
G02*
X153035000Y-58293000I635000J0D01*
G01*
X153035000Y-59817000D02*
G75*
G02*
X151765000Y-59817000I-635000J0D01*
G01*
X151765000Y-59817000D02*
G75*
G02*
X153035000Y-59817000I635000J0D01*
G01*
X153035000Y-61341000D02*
G75*
G02*
X151765000Y-61341000I-635000J0D01*
G01*
X151765000Y-61341000D02*
G75*
G02*
X153035000Y-61341000I635000J0D01*
G01*
X153035000Y-63119000D02*
G75*
G02*
X151765000Y-63119000I-635000J0D01*
G01*
X151765000Y-63119000D02*
G75*
G02*
X153035000Y-63119000I635000J0D01*
G01*
X153035000Y-64897000D02*
G75*
G02*
X151765000Y-64897000I-635000J0D01*
G01*
X151765000Y-64897000D02*
G75*
G02*
X153035000Y-64897000I635000J0D01*
G01*
X153035000Y-66675000D02*
G75*
G02*
X151765000Y-66675000I-635000J0D01*
G01*
X151765000Y-66675000D02*
G75*
G02*
X153035000Y-66675000I635000J0D01*
G01*
X153035000Y-68453000D02*
G75*
G02*
X151765000Y-68453000I-635000J0D01*
G01*
X151765000Y-68453000D02*
G75*
G02*
X153035000Y-68453000I635000J0D01*
G01*
X153035000Y-70231000D02*
G75*
G02*
X151765000Y-70231000I-635000J0D01*
G01*
X151765000Y-70231000D02*
G75*
G02*
X153035000Y-70231000I635000J0D01*
G01*
X153035000Y-72009000D02*
G75*
G02*
X151765000Y-72009000I-635000J0D01*
G01*
X151765000Y-72009000D02*
G75*
G02*
X153035000Y-72009000I635000J0D01*
G01*
X153035000Y-73787000D02*
G75*
G02*
X151765000Y-73787000I-635000J0D01*
G01*
X151765000Y-73787000D02*
G75*
G02*
X153035000Y-73787000I635000J0D01*
G01*
X153035000Y-75565000D02*
G75*
G02*
X151765000Y-75565000I-635000J0D01*
G01*
X151765000Y-75565000D02*
G75*
G02*
X153035000Y-75565000I635000J0D01*
G01*
X153035000Y-77343000D02*
G75*
G02*
X151765000Y-77343000I-635000J0D01*
G01*
X151765000Y-77343000D02*
G75*
G02*
X153035000Y-77343000I635000J0D01*
G01*
X153035000Y-79121000D02*
G75*
G02*
X151765000Y-79121000I-635000J0D01*
G01*
X151765000Y-79121000D02*
G75*
G02*
X153035000Y-79121000I635000J0D01*
G01*
X153035000Y-80899000D02*
G75*
G02*
X151765000Y-80899000I-635000J0D01*
G01*
X151765000Y-80899000D02*
G75*
G02*
X153035000Y-80899000I635000J0D01*
G01*
X153035000Y-82677000D02*
G75*
G02*
X151765000Y-82677000I-635000J0D01*
G01*
X151765000Y-82677000D02*
G75*
G02*
X153035000Y-82677000I635000J0D01*
G01*
X153035000Y-84455000D02*
G75*
G02*
X151765000Y-84455000I-635000J0D01*
G01*
X151765000Y-84455000D02*
G75*
G02*
X153035000Y-84455000I635000J0D01*
G01*
X153035000Y-86233000D02*
G75*
G02*
X151765000Y-86233000I-635000J0D01*
G01*
X151765000Y-86233000D02*
G75*
G02*
X153035000Y-86233000I635000J0D01*
G01*
X153035000Y-123317000D02*
G75*
G02*
X151765000Y-123317000I-635000J0D01*
G01*
X151765000Y-123317000D02*
G75*
G02*
X153035000Y-123317000I635000J0D01*
G01*
X153035000Y-124841000D02*
G75*
G02*
X151765000Y-124841000I-635000J0D01*
G01*
X151765000Y-124841000D02*
G75*
G02*
X153035000Y-124841000I635000J0D01*
G01*
X153035000Y-126365000D02*
G75*
G02*
X151765000Y-126365000I-635000J0D01*
G01*
X151765000Y-126365000D02*
G75*
G02*
X153035000Y-126365000I635000J0D01*
G01*
X153035000Y-127889000D02*
G75*
G02*
X151765000Y-127889000I-635000J0D01*
G01*
X151765000Y-127889000D02*
G75*
G02*
X153035000Y-127889000I635000J0D01*
G01*
X153035000Y-129413000D02*
G75*
G02*
X151765000Y-129413000I-635000J0D01*
G01*
X151765000Y-129413000D02*
G75*
G02*
X153035000Y-129413000I635000J0D01*
G01*
X153035000Y-131191000D02*
G75*
G02*
X151765000Y-131191000I-635000J0D01*
G01*
X151765000Y-131191000D02*
G75*
G02*
X153035000Y-131191000I635000J0D01*
G01*
X153035000Y-132969000D02*
G75*
G02*
X151765000Y-132969000I-635000J0D01*
G01*
X151765000Y-132969000D02*
G75*
G02*
X153035000Y-132969000I635000J0D01*
G01*
X153035000Y-134747000D02*
G75*
G02*
X151765000Y-134747000I-635000J0D01*
G01*
X151765000Y-134747000D02*
G75*
G02*
X153035000Y-134747000I635000J0D01*
G01*
X153035000Y-136525000D02*
G75*
G02*
X151765000Y-136525000I-635000J0D01*
G01*
X151765000Y-136525000D02*
G75*
G02*
X153035000Y-136525000I635000J0D01*
G01*
X153035000Y-138303000D02*
G75*
G02*
X151765000Y-138303000I-635000J0D01*
G01*
X151765000Y-138303000D02*
G75*
G02*
X153035000Y-138303000I635000J0D01*
G01*
X153035000Y-140081000D02*
G75*
G02*
X151765000Y-140081000I-635000J0D01*
G01*
X151765000Y-140081000D02*
G75*
G02*
X153035000Y-140081000I635000J0D01*
G01*
X153035000Y-141859000D02*
G75*
G02*
X151765000Y-141859000I-635000J0D01*
G01*
X151765000Y-141859000D02*
G75*
G02*
X153035000Y-141859000I635000J0D01*
G01*
X153035000Y-143637000D02*
G75*
G02*
X151765000Y-143637000I-635000J0D01*
G01*
X151765000Y-143637000D02*
G75*
G02*
X153035000Y-143637000I635000J0D01*
G01*
X153035000Y-145415000D02*
G75*
G02*
X151765000Y-145415000I-635000J0D01*
G01*
X151765000Y-145415000D02*
G75*
G02*
X153035000Y-145415000I635000J0D01*
G01*
X153035000Y-147193000D02*
G75*
G02*
X151765000Y-147193000I-635000J0D01*
G01*
X151765000Y-147193000D02*
G75*
G02*
X153035000Y-147193000I635000J0D01*
G01*
X153035000Y-148971000D02*
G75*
G02*
X151765000Y-148971000I-635000J0D01*
G01*
X151765000Y-148971000D02*
G75*
G02*
X153035000Y-148971000I635000J0D01*
G01*
X153035000Y-150749000D02*
G75*
G02*
X151765000Y-150749000I-635000J0D01*
G01*
X151765000Y-150749000D02*
G75*
G02*
X153035000Y-150749000I635000J0D01*
G01*
X153035000Y-152527000D02*
G75*
G02*
X151765000Y-152527000I-635000J0D01*
G01*
X151765000Y-152527000D02*
G75*
G02*
X153035000Y-152527000I635000J0D01*
G01*
X153035000Y-154305000D02*
G75*
G02*
X151765000Y-154305000I-635000J0D01*
G01*
X151765000Y-154305000D02*
G75*
G02*
X153035000Y-154305000I635000J0D01*
G01*
X153035000Y-53975000D02*
X151130000Y-53975000D01*
X153035000Y-87630000D02*
X153035000Y-97155000D01*
X153035000Y-97155000D02*
X144780000Y-97155000D01*
X153035000Y-103657400D02*
X144780000Y-103657400D01*
X153035000Y-103657400D02*
X153035000Y-121920000D01*
X153035000Y-155575000D02*
X151130000Y-155575000D01*
X160909000Y-66675000D02*
G75*
G02*
X155321000Y-66675000I-2794000J0D01*
G01*
X155321000Y-66675000D02*
G75*
G02*
X160909000Y-66675000I2794000J0D01*
G01*
X160020000Y-85725000D02*
G75*
G02*
X156210000Y-85725000I-1905000J0D01*
G01*
X156210000Y-85725000D02*
G75*
G02*
X160020000Y-85725000I1905000J0D01*
G01*
X160655000Y-110807500D02*
G75*
G02*
X155575000Y-110807500I-2540000J0D01*
G01*
X155575000Y-110807500D02*
G75*
G02*
X160655000Y-110807500I2540000J0D01*
G01*
X160020000Y-123825000D02*
G75*
G02*
X156210000Y-123825000I-1905000J0D01*
G01*
X156210000Y-123825000D02*
G75*
G02*
X160020000Y-123825000I1905000J0D01*
G01*
X160909000Y-142875000D02*
G75*
G02*
X155321000Y-142875000I-2794000J0D01*
G01*
X155321000Y-142875000D02*
G75*
G02*
X160909000Y-142875000I2794000J0D01*
G01*
X168910000Y-53975000D02*
X153035000Y-53975000D01*
X168910000Y-155575000D02*
X153035000Y-155575000D01*
X213360000Y-107315000D02*
X168910000Y-53975000D01*
X213360000Y-149225000D02*
X168910000Y-155575000D01*
X213360000Y-149225000D02*
X213360000Y-107315000D01*
%TO.C,J1*%
D11*
X144780000Y-102150000D02*
X149280000Y-102150000D01*
X149280000Y-98650000D02*
X144780000Y-98650000D01*
X149280000Y-102150000D02*
X149280000Y-98650000D01*
%TD*%
M02*
