M48
; DRILL file {KiCad 9.0.5} date 2026-01-12T20:38:29-0800
; FORMAT={-:-/ absolute / metric / decimal}
; #@! TF.CreationDate,2026-01-12T20:38:29-08:00
; #@! TF.GenerationSoftware,Kicad,Pcbnew,9.0.5
; #@! TF.FileFunction,Plated,1,2,PTH
FMAT,2
METRIC
; #@! TA.AperFunction,Plated,PTH,ViaDrill
T1C0.300
%
G90
G05
T1
X71.49Y-87.74
X71.49Y-91.44
X73.077Y-87.74
X73.077Y-91.44
X74.663Y-87.74
X74.663Y-91.44
X76.25Y-87.74
X76.25Y-91.44
X77.837Y-87.74
X77.837Y-91.44
X79.423Y-87.74
X79.423Y-91.44
X81.01Y-87.74
X81.01Y-91.44
X82.597Y-87.74
X82.597Y-91.44
X84.183Y-87.74
X84.183Y-91.44
X85.77Y-87.74
X85.77Y-91.44
X87.356Y-87.74
X87.356Y-91.44
X88.943Y-87.74
X88.943Y-91.44
M30
