%TF.GenerationSoftware,KiCad,Pcbnew,9.0.5*%
%TF.CreationDate,2026-01-12T20:38:26-08:00*%
%TF.ProjectId,F-antenna_P1,462d616e-7465-46e6-9e61-5f50312e6b69,rev?*%
%TF.SameCoordinates,Original*%
%TF.FileFunction,Profile,NP*%
%FSLAX46Y46*%
G04 Gerber Fmt 4.6, Leading zero omitted, Abs format (unit mm)*
G04 Created by KiCad (PCBNEW 9.0.5) date 2026-01-12 20:38:26*
%MOMM*%
%LPD*%
G01*
G04 APERTURE LIST*
%TA.AperFunction,Profile*%
%ADD10C,0.050000*%
%TD*%
%TA.AperFunction,Profile*%
%ADD11C,0.100000*%
%TD*%
G04 APERTURE END LIST*
D10*
X69850000Y-114300000D02*
X69850000Y-92710000D01*
X69850000Y-139700000D02*
X69850000Y-120650000D01*
X69900000Y-117050000D02*
G75*
G02*
X69300000Y-117050000I-300000J0D01*
G01*
X69300000Y-117050000D02*
G75*
G02*
X69900000Y-117050000I300000J0D01*
G01*
X69900000Y-116350000D02*
G75*
G02*
X69300000Y-116350000I-300000J0D01*
G01*
X69300000Y-116350000D02*
G75*
G02*
X69900000Y-116350000I300000J0D01*
G01*
X69900000Y-119350000D02*
G75*
G02*
X69300000Y-119350000I-300000J0D01*
G01*
X69300000Y-119350000D02*
G75*
G02*
X69900000Y-119350000I300000J0D01*
G01*
X69900000Y-115550000D02*
G75*
G02*
X69300000Y-115550000I-300000J0D01*
G01*
X69300000Y-115550000D02*
G75*
G02*
X69900000Y-115550000I300000J0D01*
G01*
X67740000Y-117475000D02*
G75*
G02*
X64340000Y-117475000I-1700000J0D01*
G01*
X64340000Y-117475000D02*
G75*
G02*
X67740000Y-117475000I1700000J0D01*
G01*
X63500000Y-120650000D02*
X69850000Y-120650000D01*
X69850000Y-114300000D02*
X63500000Y-114300000D01*
X69900000Y-118550000D02*
G75*
G02*
X69300000Y-118550000I-300000J0D01*
G01*
X69300000Y-118550000D02*
G75*
G02*
X69900000Y-118550000I300000J0D01*
G01*
X63500000Y-114300000D02*
X63500000Y-120650000D01*
X69900000Y-117750000D02*
G75*
G02*
X69300000Y-117750000I-300000J0D01*
G01*
X69300000Y-117750000D02*
G75*
G02*
X69900000Y-117750000I300000J0D01*
G01*
X69900000Y-114750000D02*
G75*
G02*
X69300000Y-114750000I-300000J0D01*
G01*
X69300000Y-114750000D02*
G75*
G02*
X69900000Y-114750000I300000J0D01*
G01*
X69900000Y-120150000D02*
G75*
G02*
X69300000Y-120150000I-300000J0D01*
G01*
X69300000Y-120150000D02*
G75*
G02*
X69900000Y-120150000I300000J0D01*
G01*
X69900000Y-59900000D02*
G75*
G02*
X69300000Y-59900000I-300000J0D01*
G01*
X69300000Y-59900000D02*
G75*
G02*
X69900000Y-59900000I300000J0D01*
G01*
X69900000Y-59200000D02*
G75*
G02*
X69300000Y-59200000I-300000J0D01*
G01*
X69300000Y-59200000D02*
G75*
G02*
X69900000Y-59200000I300000J0D01*
G01*
X69900000Y-60600000D02*
G75*
G02*
X69300000Y-60600000I-300000J0D01*
G01*
X69300000Y-60600000D02*
G75*
G02*
X69900000Y-60600000I300000J0D01*
G01*
X69900000Y-61400000D02*
G75*
G02*
X69300000Y-61400000I-300000J0D01*
G01*
X69300000Y-61400000D02*
G75*
G02*
X69900000Y-61400000I300000J0D01*
G01*
X69900000Y-62200000D02*
G75*
G02*
X69300000Y-62200000I-300000J0D01*
G01*
X69300000Y-62200000D02*
G75*
G02*
X69900000Y-62200000I300000J0D01*
G01*
X69900000Y-63000000D02*
G75*
G02*
X69300000Y-63000000I-300000J0D01*
G01*
X69300000Y-63000000D02*
G75*
G02*
X69900000Y-63000000I300000J0D01*
G01*
X69900000Y-58400000D02*
G75*
G02*
X69300000Y-58400000I-300000J0D01*
G01*
X69300000Y-58400000D02*
G75*
G02*
X69900000Y-58400000I300000J0D01*
G01*
X69900000Y-57600000D02*
G75*
G02*
X69300000Y-57600000I-300000J0D01*
G01*
X69300000Y-57600000D02*
G75*
G02*
X69900000Y-57600000I300000J0D01*
G01*
X69850000Y-63500000D02*
X69850000Y-86360000D01*
X63500000Y-63500000D02*
X69850000Y-63500000D01*
X63500000Y-57150000D02*
X63500000Y-63500000D01*
X67740000Y-60325000D02*
G75*
G02*
X64340000Y-60325000I-1700000J0D01*
G01*
X64340000Y-60325000D02*
G75*
G02*
X67740000Y-60325000I1700000J0D01*
G01*
X69850000Y-38100000D02*
X69850000Y-57150000D01*
X114300000Y-133350000D02*
X114300000Y-82550000D01*
X76073000Y-50800000D02*
G75*
G02*
X71247000Y-50800000I-2413000J0D01*
G01*
X71247000Y-50800000D02*
G75*
G02*
X76073000Y-50800000I2413000J0D01*
G01*
X66680800Y-92716200D02*
X69850000Y-92710000D01*
X62130800Y-92716200D02*
X66680800Y-92716200D01*
X62130800Y-87861200D02*
X62130800Y-86366200D01*
X66680800Y-86366200D02*
X69850000Y-86366200D01*
X62130800Y-86366200D02*
X66680800Y-86366200D01*
X114300000Y-82550000D02*
X81915000Y-38100000D01*
X62130800Y-91361200D02*
X62130800Y-92716200D01*
X69850000Y-139700000D02*
X81915000Y-139700000D01*
X69850000Y-38100000D02*
X81915000Y-38100000D01*
X81915000Y-139700000D02*
X114300000Y-133350000D01*
X76073000Y-127000000D02*
G75*
G02*
X71247000Y-127000000I-2413000J0D01*
G01*
X71247000Y-127000000D02*
G75*
G02*
X76073000Y-127000000I2413000J0D01*
G01*
X69850000Y-57150000D02*
X63500000Y-57150000D01*
D11*
%TO.C,J1*%
X66630800Y-91361200D02*
X66630800Y-87861200D01*
X66630800Y-87861200D02*
X62130800Y-87861200D01*
X62130800Y-91361200D02*
X66630800Y-91361200D01*
%TD*%
M02*
