M48
; DRILL file KiCad 10.0.0 date 2026-04-11T15:35:02
; FORMAT={-:-/ absolute / metric / decimal}
; #@! TF.CreationDate,2026-04-11T15:35:02-07:00
; #@! TF.GenerationSoftware,Kicad,Pcbnew,10.0.0
; #@! TF.FileFunction,Plated,1,2,PTH
FMAT,2
METRIC
; #@! TA.AperFunction,Plated,PTH,ViaDrill
T1C0.300
%
G90
G05
T1
X74.241Y-95.36
X74.241Y-99.06
X75.828Y-95.36
X75.828Y-99.06
X77.414Y-95.36
X77.414Y-99.06
X79.001Y-95.36
X79.001Y-99.06
X80.587Y-95.36
X80.587Y-99.06
X82.174Y-95.36
X82.174Y-99.06
X83.761Y-95.36
X83.761Y-99.06
X85.347Y-95.36
X85.347Y-99.06
X86.934Y-95.36
X86.934Y-99.06
X88.521Y-95.36
X88.521Y-99.06
X90.107Y-95.36
X90.107Y-99.06
X91.694Y-95.36
X91.694Y-99.06
X93.347Y-95.36
X93.347Y-99.06
X94.933Y-95.36
X94.933Y-99.06
X96.52Y-95.36
X96.52Y-99.06
M30
