%TF.GenerationSoftware,KiCad,Pcbnew,9.0.5*%
%TF.CreationDate,2026-01-12T20:38:26-08:00*%
%TF.ProjectId,F-antenna_P1,462d616e-7465-46e6-9e61-5f50312e6b69,rev?*%
%TF.SameCoordinates,Original*%
%TF.FileFunction,Copper,L2,Bot*%
%TF.FilePolarity,Positive*%
%FSLAX46Y46*%
G04 Gerber Fmt 4.6, Leading zero omitted, Abs format (unit mm)*
G04 Created by KiCad (PCBNEW 9.0.5) date 2026-01-12 20:38:26*
%MOMM*%
%LPD*%
G01*
G04 APERTURE LIST*
%TA.AperFunction,ViaPad*%
%ADD10C,0.600000*%
%TD*%
G04 APERTURE END LIST*
D10*
%TO.N,GroundPlane*%
X71490071Y-91440000D03*
X73076714Y-91440000D03*
X74663357Y-91440000D03*
X76250000Y-91440000D03*
X77836643Y-91440000D03*
X79423286Y-91440000D03*
X81009928Y-91440000D03*
X82596571Y-91440000D03*
X84183214Y-91440000D03*
X85769857Y-91440000D03*
X87356500Y-91440000D03*
X88943143Y-91440000D03*
X88943143Y-87740000D03*
X87356500Y-87740000D03*
X85769857Y-87740000D03*
X84183214Y-87740000D03*
X82596571Y-87740000D03*
X81009928Y-87740000D03*
X79423286Y-87740000D03*
X77836643Y-87740000D03*
X76250000Y-87740000D03*
X74663357Y-87740000D03*
X73076714Y-87740000D03*
X71490071Y-87740000D03*
%TD*%
%TA.AperFunction,Conductor*%
%TO.N,GroundPlane*%
G36*
X69649641Y-90515196D02*
G01*
X70350000Y-90814921D01*
X70350000Y-92641758D01*
X70333340Y-92580066D01*
X70316392Y-92516814D01*
X70316388Y-92516807D01*
X70316097Y-92516104D01*
X70316012Y-92515900D01*
X70283220Y-92459360D01*
X70283208Y-92459340D01*
X70250499Y-92402685D01*
X70250356Y-92402499D01*
X70250349Y-92402489D01*
X70249894Y-92401898D01*
X70203597Y-92355783D01*
X70157314Y-92309500D01*
X70157126Y-92309356D01*
X70156954Y-92309224D01*
X70156953Y-92309223D01*
X70156739Y-92309058D01*
X70156719Y-92309045D01*
X70156532Y-92308902D01*
X70156530Y-92308900D01*
X70099950Y-92276380D01*
X70099936Y-92276362D01*
X70099932Y-92276370D01*
X70043182Y-92243605D01*
X70042942Y-92243506D01*
X70042942Y-92243505D01*
X70042781Y-92243440D01*
X70042716Y-92243413D01*
X70042534Y-92243337D01*
X70042513Y-92243330D01*
X70042269Y-92243229D01*
X69979059Y-92226425D01*
X69979037Y-92226419D01*
X69915894Y-92209500D01*
X69915671Y-92209470D01*
X69915671Y-92209471D01*
X69915142Y-92209402D01*
X69915140Y-92209401D01*
X69914918Y-92209372D01*
X69914913Y-92209372D01*
X69849486Y-92209500D01*
X69784108Y-92209500D01*
X69784107Y-92209500D01*
X69783864Y-92209532D01*
X69782373Y-92209630D01*
X66680378Y-92215700D01*
X62643000Y-92215700D01*
X62634727Y-92212273D01*
X62631300Y-92204000D01*
X62631300Y-91873400D01*
X62634727Y-91865127D01*
X62643000Y-91861700D01*
X66696693Y-91861700D01*
X66696693Y-91861699D01*
X66760339Y-91844646D01*
X66823984Y-91827593D01*
X66823988Y-91827591D01*
X66862028Y-91805628D01*
X66938114Y-91761700D01*
X67031300Y-91668514D01*
X67097192Y-91554386D01*
X67131300Y-91427092D01*
X67131300Y-90808160D01*
X67134727Y-90799887D01*
X67141687Y-90796534D01*
X69643729Y-90514327D01*
X69649641Y-90515196D01*
G37*
%TD.AperFunction*%
%TD*%
%TA.AperFunction,Conductor*%
%TO.N,GroundPlane*%
G36*
X70350000Y-88414945D02*
G01*
X69700578Y-88712971D01*
X69694345Y-88713959D01*
X67141647Y-88416795D01*
X67133826Y-88412434D01*
X67131300Y-88405173D01*
X67131300Y-87795307D01*
X67131299Y-87795305D01*
X67097193Y-87668015D01*
X67097191Y-87668011D01*
X67031302Y-87553889D01*
X67031298Y-87553884D01*
X66938115Y-87460701D01*
X66938110Y-87460697D01*
X66823988Y-87394808D01*
X66823984Y-87394806D01*
X66696694Y-87360700D01*
X66696692Y-87360700D01*
X62643000Y-87360700D01*
X62634727Y-87357273D01*
X62631300Y-87349000D01*
X62631300Y-86878400D01*
X62634727Y-86870127D01*
X62643000Y-86866700D01*
X69915893Y-86866700D01*
X69915893Y-86866699D01*
X69979539Y-86849646D01*
X70043184Y-86832593D01*
X70043188Y-86832591D01*
X70081228Y-86810628D01*
X70157314Y-86766700D01*
X70250500Y-86673514D01*
X70316392Y-86559386D01*
X70350000Y-86433958D01*
X70350000Y-88414945D01*
G37*
%TD.AperFunction*%
%TD*%
%TA.AperFunction,Conductor*%
%TO.N,GroundPlane*%
G36*
X89846632Y-74258368D02*
G01*
X89850000Y-74266500D01*
X89850000Y-134243500D01*
X89846632Y-134251632D01*
X89838500Y-134255000D01*
X70362000Y-134255000D01*
X70353868Y-134251632D01*
X70350500Y-134243500D01*
X70350500Y-126836381D01*
X70746500Y-126836381D01*
X70746500Y-126874917D01*
X70746500Y-127163619D01*
X70783139Y-127488798D01*
X70839191Y-127734379D01*
X70855955Y-127807828D01*
X70964034Y-128116704D01*
X70964035Y-128116705D01*
X71106018Y-128411536D01*
X71106020Y-128411539D01*
X71106021Y-128411542D01*
X71280113Y-128688609D01*
X71484148Y-128944460D01*
X71715539Y-129175851D01*
X71971390Y-129379886D01*
X72248457Y-129553978D01*
X72248458Y-129553978D01*
X72248464Y-129553982D01*
X72543295Y-129695965D01*
X72852169Y-129804044D01*
X73171202Y-129876861D01*
X73496381Y-129913500D01*
X73496382Y-129913500D01*
X73823618Y-129913500D01*
X73823619Y-129913500D01*
X74148798Y-129876861D01*
X74467831Y-129804044D01*
X74776705Y-129695965D01*
X75071536Y-129553982D01*
X75148158Y-129505836D01*
X75348609Y-129379886D01*
X75348612Y-129379883D01*
X75348616Y-129379881D01*
X75604460Y-129175852D01*
X75835852Y-128944460D01*
X76039881Y-128688616D01*
X76039883Y-128688612D01*
X76039886Y-128688609D01*
X76213978Y-128411542D01*
X76213977Y-128411542D01*
X76213982Y-128411536D01*
X76355965Y-128116705D01*
X76464044Y-127807831D01*
X76536861Y-127488798D01*
X76573500Y-127163619D01*
X76573500Y-126836381D01*
X76536861Y-126511202D01*
X76464044Y-126192169D01*
X76355965Y-125883295D01*
X76213982Y-125588464D01*
X76213978Y-125588457D01*
X76039886Y-125311390D01*
X75835851Y-125055539D01*
X75604460Y-124824148D01*
X75348609Y-124620113D01*
X75071542Y-124446021D01*
X75071539Y-124446020D01*
X75071536Y-124446018D01*
X74776705Y-124304035D01*
X74776706Y-124304035D01*
X74776704Y-124304034D01*
X74467828Y-124195955D01*
X74394379Y-124179191D01*
X74148798Y-124123139D01*
X73823619Y-124086500D01*
X73496381Y-124086500D01*
X73322976Y-124106038D01*
X73171210Y-124123138D01*
X73171209Y-124123138D01*
X73171202Y-124123139D01*
X72978792Y-124167055D01*
X72852171Y-124195955D01*
X72543295Y-124304034D01*
X72543292Y-124304036D01*
X72248460Y-124446020D01*
X72248457Y-124446021D01*
X71971390Y-124620113D01*
X71715539Y-124824148D01*
X71484148Y-125055539D01*
X71280113Y-125311390D01*
X71106021Y-125588457D01*
X71106020Y-125588460D01*
X70964036Y-125883292D01*
X70964034Y-125883295D01*
X70855955Y-126192171D01*
X70827055Y-126318792D01*
X70783139Y-126511202D01*
X70746500Y-126836381D01*
X70350500Y-126836381D01*
X70350500Y-120584108D01*
X70350392Y-120583705D01*
X70350000Y-120580729D01*
X70350000Y-120433433D01*
X70350875Y-120429032D01*
X70369737Y-120383496D01*
X70400500Y-120228842D01*
X70400500Y-120071158D01*
X70369737Y-119916503D01*
X70350875Y-119870965D01*
X70350000Y-119866564D01*
X70350000Y-119633434D01*
X70350874Y-119629035D01*
X70369737Y-119583497D01*
X70400500Y-119428842D01*
X70400500Y-119271158D01*
X70369737Y-119116503D01*
X70350875Y-119070965D01*
X70350000Y-119066564D01*
X70350000Y-118833434D01*
X70350874Y-118829035D01*
X70369737Y-118783497D01*
X70400500Y-118628842D01*
X70400500Y-118471158D01*
X70369737Y-118316503D01*
X70350875Y-118270965D01*
X70350000Y-118266564D01*
X70350000Y-118033434D01*
X70350874Y-118029035D01*
X70369737Y-117983497D01*
X70400500Y-117828842D01*
X70400500Y-117671158D01*
X70369737Y-117516503D01*
X70350875Y-117470965D01*
X70350000Y-117466564D01*
X70350000Y-117333434D01*
X70350875Y-117329033D01*
X70369737Y-117283496D01*
X70400500Y-117128842D01*
X70400500Y-116971158D01*
X70369737Y-116816503D01*
X70350875Y-116770965D01*
X70350000Y-116766564D01*
X70350000Y-116633434D01*
X70350875Y-116629033D01*
X70369737Y-116583496D01*
X70400500Y-116428842D01*
X70400500Y-116271158D01*
X70369737Y-116116503D01*
X70350875Y-116070965D01*
X70350000Y-116066564D01*
X70350000Y-115833434D01*
X70350874Y-115829035D01*
X70369737Y-115783497D01*
X70400500Y-115628842D01*
X70400500Y-115471158D01*
X70369737Y-115316503D01*
X70350875Y-115270965D01*
X70350000Y-115266564D01*
X70350000Y-115033434D01*
X70350874Y-115029035D01*
X70369737Y-114983497D01*
X70400500Y-114828842D01*
X70400500Y-114671158D01*
X70369737Y-114516503D01*
X70350875Y-114470966D01*
X70350000Y-114466565D01*
X70350000Y-114369272D01*
X70350392Y-114366294D01*
X70350500Y-114365892D01*
X70350500Y-92776639D01*
X70350596Y-92775159D01*
X70350627Y-92774916D01*
X70350628Y-92774913D01*
X70350500Y-92709531D01*
X70350500Y-92644108D01*
X70350499Y-92644107D01*
X70350400Y-92643354D01*
X70350400Y-92643353D01*
X70350398Y-92643346D01*
X70350370Y-92643137D01*
X70350370Y-92643129D01*
X70350000Y-92641758D01*
X70350000Y-86433957D01*
X70350500Y-86432091D01*
X70350500Y-74266500D01*
X70353868Y-74258368D01*
X70362000Y-74255000D01*
X89838500Y-74255000D01*
X89846632Y-74258368D01*
G37*
%TD.AperFunction*%
%TD*%
M02*
